<?xml version="1.0" encoding="utf-8"?>
<!-- Generator: Adobe Illustrator 21.0.2, SVG Export Plug-In . SVG Version: 6.00 Build 0)  -->
<svg version="1.1" id="Layer_1" xmlns="http://www.w3.org/2000/svg" xmlns:xlink="http://www.w3.org/1999/xlink" x="0px" y="0px"
	 viewBox="0 0 375.4 375.5" style="enable-background:new 0 0 375.4 375.5;" xml:space="preserve">
<style type="text/css">
	.st0{fill:none;}
	.st1{fill:#FFFFFF;}
	.st2{fill:#732B81;}
	.st3{fill:#F47923;}
	.st4{fill:#FBBB8F;}
	.st5{fill:#F7BA92;}
	.st6{fill:#FEFEFE;}
	.st7{fill:#F9BC92;}
	.st8{fill:#FBBA8E;}
	.st9{fill:#722B81;}
	.st10{fill:#722C81;}
	.st11{fill:#73318D;}
	.st12{fill:#F07930;}
	.st13{fill:#EF7830;}
	.st14{fill:#72308C;}
	.st15{fill:#72318C;}
	.st16{fill:#FBFAFC;}
	.st17{fill:#FBFBFC;}
	.st18{fill:#FCFBFC;}
	.st19{fill:#FBF9FB;}
	.st20{fill:#74328E;}
</style>
<g id="White_Circle">
	<g>
		<path class="st0" d="M187.7,0C84.4-0.1,0.2,84,0,187.5s83.8,187.9,187.3,188c103.7,0.1,187.5-82.9,188.1-186.2
			C376,84.3,292.1,0.1,187.7,0z M187.7,350c-89.5,0-162.1-72.7-162.2-162.3c0-89.3,72.7-162.2,162.1-162.2
			c89.6,0,162.4,72.7,162.4,162.1C350,277.3,277.3,350,187.7,350z"/>
		<path class="st1" d="M187.6,25.5c-89.3,0-162.1,72.9-162.1,162.2c0,89.6,72.7,162.3,162.2,162.3c89.6,0,162.3-72.7,162.3-162.4
			C350,98.2,277.1,25.5,187.6,25.5z"/>
	</g>
</g>
<g id="ACTIVATE">
	<g>
		<path class="st2" d="M209.3,237.5c4.9,4.4,4.3,11.6-0.4,16.1c-19,18.7-37.8,37.6-56.6,56.5c-3.2,3.3-6.8,4.8-11.4,3.5
			c-3.4-1-6.5-4.9-6.5-8.3c0-8.6-0.1-17.2,0.1-25.7c0.1-2.7-0.8-3-3.2-3c-18.7,0.1-37.3,0-56,0.1c-2,0-2.5-0.5-2.5-2.5
			c0.1-19.1,0.1-38.2,0-57.2c0-2.1,0.7-2.5,2.5-2.4c2.9,0.1,5.8,0,8.7,0c1.4,0,2.9,0,4.3,0c0.2,0,0.3,0,0.5,0
			c14.6,0,29.1,0,43.7,0.1c1.8,0,1.8-0.8,1.8-2.1c0-9.2,0-18.5,0-27.7c0-1.7,0.6-3,1.6-4.3c4.2-5.1,11.4-5,15.9-0.4
			c15.3,15.5,30.8,30.9,46.2,46.3c2.1,2.1,4,4.5,6.5,6.1c0.9,1.7,2.4,2.9,3.8,4c0.1,0.2,0.3,0.3,0.4,0.5l0,0
			C209,237.2,209.1,237.3,209.3,237.5z"/>
		<path class="st3" d="M208.5,236.6c-1.5-1.1-2.9-2.3-3.8-4c1-0.5,2.1-0.3,3.2-0.3c29.3,0,58.6,0,87.9,0c5.6,0,8.8-2.9,8.8-8.2
			c0-34.3,0-68.6,0-102.9c0.3-0.3,0.1-0.5-0.2-0.5c-8.8-8.8-17.7-17.4-26.3-26.4c-2.9-3-5.8-4.1-9.8-4
			c-56.6,0.1-113.3,0.1-169.9,0.1c-1.1,0-2.2,0.1-3.2,0.2c-3.6,0.5-5.5,2.7-6.3,6c-0.3,0.2-0.4,0.4-0.1,0.6c0,3.9-0.1,7.8-0.1,11.7
			c0,30.5,0,61.1,0,91.6c0,4.5,0.1,9,0.1,13.5c-0.1,0.2-0.2,0.3-0.3,0.5c-1.4,0-2.9,0-4.3,0c0-38.2,0.1-76.5,0.1-114.7
			c0-3.2,0.1-6.3,2.2-8.9c2.3-2.8,5-4.8,8.8-5c0.7,0,1.5-0.1,2.2-0.1c58.7,0,117.4,0,176.1,0c0.4,0,0.8,0,1.2,0
			c0.2,0,0.4,0.1,0.6,0.1c1,0.5,1.8,1.2,2.5,1.9c9.7,9.8,19.5,19.5,29.2,29.2c0.8,0.8,1.9,1.5,1.9,2.8c0,0.1-0.1,0.2-0.1,0.2
			c0,0.1,0.1,0.3,0.2,0.4c0,22.8,0,45.6,0,68.4c0,11.8,0,23.6,0,35.4c0,0.2-0.1,0.4-0.1,0.7c-1.2,7.4-4.6,10.8-11.6,11.6
			c-0.2,0-0.4,0.1-0.7,0.1c-28,0-55.9,0-83.9,0c-1.2,0-2.5,0.1-3.7,0.1c-0.1,0-0.2,0-0.2,0.1l0,0
			C208.8,236.9,208.7,236.8,208.5,236.6z"/>
		<path class="st4" d="M208.9,237.1c0-0.1,0.1-0.2,0.2-0.1c0,0.2,0.1,0.4,0.1,0.5C209.1,237.3,209,237.2,208.9,237.1z"/>
		<path class="st4" d="M296.8,236.9c0.2,0,0.4-0.1,0.7-0.1C297.3,236.8,297.1,236.8,296.8,236.9z"/>
		<path class="st4" d="M309.1,225.2c0-0.2,0.1-0.4,0.1-0.7C309.1,224.7,309.1,225,309.1,225.2z"/>
		<path class="st5" d="M275.4,86.1c-0.2,0-0.4-0.1-0.6-0.1C275.1,85.7,275.3,85.8,275.4,86.1z"/>
		<path class="st4" d="M309.2,120.7c-0.1-0.1-0.2-0.3-0.2-0.4s0-0.2,0.1-0.2C309.3,120.2,309.3,120.4,309.2,120.7z"/>
		<path class="st6" d="M88.7,214c0-4.5-0.1-9-0.1-13.5c0-30.5,0-61.1,0-91.6c0-3.9,0.1-7.8,0.1-11.7c0-0.2,0.1-0.4,0.1-0.6
			c0.8-3.4,2.8-5.6,6.3-6c1.1-0.1,2.2-0.2,3.2-0.2c56.6,0,113.3,0,169.9-0.1c4,0,6.9,1,9.8,4c8.5,9,17.5,17.6,26.3,26.4
			c0.1,0.2,0.1,0.3,0.2,0.5c0,34.3,0,68.6,0,102.9c0,5.3-3.2,8.2-8.8,8.2c-29.3,0-58.6,0-87.9,0c-1.1,0-2.2-0.3-3.2,0.3
			c-2.5-1.7-4.4-4-6.5-6.1c-15.4-15.4-30.9-30.8-46.2-46.3c-4.5-4.6-11.7-4.7-15.9,0.4c-1.1,1.3-1.7,2.6-1.6,4.3
			c0.1,9.2,0,18.5,0,27.7c0,1.3,0,2.1-1.8,2.1c-14.6-0.1-29.1-0.1-43.7-0.1C88.9,214.4,88.8,214.2,88.7,214z M270.4,203.6
			c0-2.6,0-5.1,0-7.7c0-5.4,0-5.3-5.5-5.3c-1.6,0-2.1,0.4-2.1,2.1c0.1,6,0,12,0,17.9c0,5.7,0,5.7,5.7,5.6c1.4,0,1.8-0.4,1.8-1.8
			C270.4,210.8,270.4,207.2,270.4,203.6z M236.4,203.2c0-2.6,0-5.2,0-7.7c0-4.9,0-4.9-5-4.9c-1.6,0-2.1,0.4-2.1,2.1
			c0.1,6.2,0,12.3,0,18.5c0,5.2,0,5.2,5.3,5c1.3,0,1.7-0.3,1.7-1.7C236.4,210.7,236.4,207,236.4,203.2z M215.4,203.1
			c0,3.7,0.1,7.5,0,11.2c-0.1,2.3,1.3,1.8,2.5,1.8s2.6,0.5,2.6-1.8c-0.1-7.3-0.1-14.6,0-21.9c0-2.3-1.3-1.8-2.6-1.8
			c-1.2,0-2.7-0.5-2.5,1.8C215.6,196,215.4,199.5,215.4,203.1z M254.4,203.3c0,3.7,0.1,7.3-0.1,11c-0.1,2.3,1.3,1.9,2.5,1.8
			c1.2,0,2.6,0.6,2.6-1.7c-0.1-7.3-0.1-14.6,0-21.9c0-2.3-1.3-1.9-2.5-1.8c-1.2,0-2.7-0.6-2.6,1.7
			C254.5,196,254.4,199.7,254.4,203.3z M209.4,203.1c0,3.7,0,7.5,0,11.2c0,0.9-0.3,1.8,1.2,1.8s1.3-0.9,1.3-1.8c0-7.3,0-14.6,0-21.9
			c0-0.8,0.3-1.8-1.2-1.8s-1.3,0.9-1.3,1.8C209.4,195.9,209.4,199.5,209.4,203.1z M224.9,203.3c0-3.7,0-7.5,0-11.2
			c0-0.9,0-1.6-1.3-1.6s-1.2,0.7-1.2,1.6c0,7.5,0,14.9,0,22.4c0,0.9,0,1.6,1.3,1.6s1.2-0.7,1.2-1.6
			C224.9,210.8,224.9,207.1,224.9,203.3z M239.9,203.3c0,3.7,0,7.3,0,11c0,0.8-0.3,1.8,1.2,1.9c1.5,0,1.3-0.9,1.3-1.8
			c0-7.3,0-14.6,0-21.9c0-0.8,0.3-1.8-1.2-1.9c-1.5,0-1.3,0.9-1.3,1.8C239.9,196,239.9,199.7,239.9,203.3z M247.9,203.2
			c0,3.7,0,7.5,0,11.2c0,1-0.1,1.8,1.4,1.7c1.3,0,1.2-0.9,1.2-1.7c0-7.4,0-14.8,0-22.2c0-1,0.1-1.8-1.4-1.7c-1.3,0-1.2,0.9-1.2,1.7
			C247.9,195.9,247.9,199.5,247.9,203.2z M274.9,203.3c0-3.7,0-7.3,0-11c0-0.9,0.3-1.8-1.3-1.8c-1.5,0-1.2,1-1.2,1.8
			c0,7.3,0,14.6,0,21.9c0,0.9-0.3,1.8,1.3,1.8c1.5,0,1.2-1,1.3-1.8C274.9,210.7,274.9,207,274.9,203.3z M282.4,203.6
			c0-3.7,0-7.5,0-11.2c0-0.9,0.3-1.8-1.2-1.8s-1.3,0.9-1.3,1.8c0,7.3,0,14.6,0,21.9c0,0.9-0.3,1.8,1.2,1.8s1.3-0.9,1.3-1.8
			C282.4,210.8,282.4,207.2,282.4,203.6z"/>
		<path class="st4" d="M208.5,236.6c0.1,0.2,0.3,0.3,0.4,0.5C208.8,236.9,208.7,236.8,208.5,236.6z"/>
		<path class="st7" d="M88.7,214c0.1,0.2,0.1,0.3,0.2,0.5c-0.2,0-0.3,0-0.5,0C88.5,214.4,88.6,214.2,88.7,214z"/>
		<path class="st7" d="M88.8,96.6c0,0.2-0.1,0.4-0.1,0.6C88.5,96.9,88.6,96.7,88.8,96.6z"/>
		<path class="st8" d="M304.6,121.2c-0.1-0.2-0.1-0.3-0.2-0.5C304.7,120.7,304.8,120.9,304.6,121.2z"/>
		<path class="st9" d="M270.4,203.6c0,3.6-0.1,7.1,0,10.7c0,1.4-0.4,1.8-1.8,1.8c-5.7,0.1-5.7,0.1-5.7-5.6c0-6,0.1-12,0-17.9
			c0-1.6,0.4-2.1,2.1-2.1c5.5,0,5.5,0,5.5,5.3C270.4,198.5,270.4,201,270.4,203.6z"/>
		<path class="st9" d="M236.4,203.2c0,3.7-0.1,7.5,0,11.2c0,1.3-0.4,1.7-1.7,1.7c-5.3,0.1-5.3,0.2-5.3-5c0-6.2,0.1-12.3,0-18.5
			c0-1.7,0.5-2.1,2.1-2.1c5,0,5,0,5,4.9C236.4,198,236.4,200.6,236.4,203.2z"/>
		<path class="st9" d="M215.4,203.1c0-3.6,0.1-7.1,0-10.7c-0.1-2.3,1.3-1.8,2.5-1.8s2.6-0.5,2.6,1.8c-0.1,7.3-0.1,14.6,0,21.9
			c0,2.3-1.3,1.8-2.6,1.8c-1.2,0-2.7,0.5-2.5-1.8C215.6,210.6,215.4,206.8,215.4,203.1z"/>
		<path class="st9" d="M254.4,203.3c0-3.7,0.1-7.3,0-11c-0.1-2.3,1.4-1.7,2.6-1.7c1.3,0,2.6-0.4,2.5,1.8c-0.2,7.3-0.1,14.6,0,21.9
			c0,2.3-1.4,1.7-2.6,1.7c-1.3,0-2.6,0.5-2.5-1.8C254.6,210.6,254.4,207,254.4,203.3z"/>
		<path class="st9" d="M209.4,203.1c0-3.6,0-7.1,0-10.7c0-0.9-0.3-1.8,1.3-1.8c1.5,0,1.2,1,1.2,1.8c0,7.3,0,14.6,0,21.9
			c0,0.9,0.2,1.8-1.3,1.8s-1.2-1-1.2-1.8C209.4,210.6,209.4,206.8,209.4,203.1z"/>
		<path class="st9" d="M224.9,203.3c0,3.7,0,7.5,0,11.2c0,0.9,0,1.6-1.2,1.6s-1.3-0.6-1.3-1.6c0-7.5,0-14.9,0-22.4
			c0-0.9,0-1.6,1.2-1.6c1.3,0,1.3,0.6,1.3,1.6C224.9,195.9,224.9,199.6,224.9,203.3z"/>
		<path class="st10" d="M239.9,203.3c0-3.7,0-7.3,0-11c0-0.9-0.2-1.8,1.3-1.8s1.2,1,1.2,1.9c0,7.3,0,14.6,0,21.9
			c0,0.9,0.2,1.8-1.3,1.8s-1.2-1-1.2-1.9C239.9,210.6,239.9,207,239.9,203.3z"/>
		<path class="st10" d="M247.9,203.2c0-3.7,0-7.3,0-11c0-0.8-0.2-1.6,1.2-1.7c1.4,0,1.4,0.8,1.4,1.7c0,7.4,0,14.8,0,22.2
			c0,0.8,0.2,1.6-1.2,1.7c-1.4,0.1-1.4-0.8-1.4-1.7C247.9,210.7,247.9,206.9,247.9,203.2z"/>
		<path class="st9" d="M274.9,203.3c0,3.7,0,7.3,0,11c0,0.9,0.3,1.8-1.3,1.8c-1.5,0-1.2-1-1.3-1.8c0-7.3,0-14.6,0-21.9
			c0-0.9-0.3-1.8,1.2-1.8s1.3,0.9,1.3,1.8C274.9,196,274.9,199.7,274.9,203.3z"/>
		<path class="st10" d="M282.4,203.6c0,3.6,0,7.1,0,10.7c0,0.9,0.2,1.8-1.3,1.8s-1.2-1-1.2-1.8c0-7.3,0-14.6,0-21.9
			c0-0.9-0.2-1.8,1.3-1.8s1.2,1,1.2,1.8C282.4,196.1,282.4,199.9,282.4,203.6z"/>
	</g>
	<g>
		<path class="st0" d="M172.4,149.2c-1.6,0-3,0-4.5,0c-0.2,0-0.3,0.1-0.4,0.2c0.1-0.1,0.2-0.2,0.4-0.2
			C169.3,149.2,170.8,149.2,172.4,149.2c-0.2,0.4-0.3,0.6-0.3,0.8c0,0.1-0.1,0.2-0.1,0.2c0-0.1,0.1-0.2,0.1-0.3
			C172.1,149.8,172.2,149.5,172.4,149.2z"/>
		<path class="st0" d="M164.7,151.7c-3.5,0.1-7,0-10.6,0c-0.5,0-0.7-0.1-0.4-0.6c1.3-2.6,2.5-5.2,3.7-7.8l0,0
			c-1.2,2.6-2.5,5.2-3.7,7.8c-0.2,0.5-0.1,0.6,0.4,0.6C157.7,151.7,161.2,151.8,164.7,151.7c1.1,0,2-0.4,2.5-1.5
			C166.7,151.2,165.8,151.7,164.7,151.7z"/>
		<path class="st0" d="M137.3,155.7c0.1-0.3,0.4-0.3,0.7-0.3c0.8-0.1,1.6-0.2,2.3-0.5c1.1-0.4,2-1.1,2.5-2.2
			c4.3-9.1,8.6-18.1,13-27.2c0.7-1.5,0.3-3.3-1-4.5c-0.3-0.2-0.7-0.3-0.5-0.9V120c0,0,0,0.1-0.1,0.1c-0.4,0.5,0.2,0.7,0.5,0.9
			c1.3,1.1,1.7,2.9,1,4.5c-4.3,9.1-8.6,18.1-13,27.2c-0.5,1.1-1.4,1.8-2.5,2.2c-0.7,0.3-1.5,0.4-2.3,0.5
			C137.7,155.4,137.4,155.4,137.3,155.7c-0.4,0.8-0.8,1.6-1.2,2.5l0,0l0,0C136.5,157.4,136.9,156.5,137.3,155.7z"/>
		<path class="st0" d="M174.5,135.1c-1,0-2,0-3,0c0.1-0.4,0.2-0.8,0.4-1.1c-0.2,0.4-0.3,0.7-0.4,1.2
			C172.5,135.2,173.4,135.2,174.5,135.1c-1.7,3.6-3.4,7.1-5,10.5l0,0C171.1,142.2,172.8,138.7,174.5,135.1z"/>
		<path class="st0" d="M173.8,152.8c0.3-0.6,0.2-0.8-0.5-0.8s-1.7,0.4-2-0.2c-0.1-0.2-0.1-0.4,0-0.6c-0.1,0.2-0.2,0.5-0.1,0.6
			c0.3,0.5,1.3,0.2,2,0.2S174.1,152.3,173.8,152.8c-1.3,2.7-2.5,5.3-3.7,7.9l0,0C171.3,158.1,172.6,155.4,173.8,152.8z"/>
		<path class="st0" d="M149.8,152.7c-0.1,0-0.3,0-0.4,0C149.6,152.7,149.7,152.7,149.8,152.7L149.8,152.7z"/>
		<path class="st0" d="M165.2,134.9c-1.2,0-2.4,0-3.7,0c1-2.2,2-4.3,3-6.4c0.2-0.5,0.4-1.1,0.7-1.7c-0.3,0.5-0.5,1.2-0.7,1.7
			c-1,2.1-2,4.2-3,6.4C162.8,135,164,135,165.2,134.9c1.5,0,2.1-0.1,2.5-0.9C167.3,134.8,166.7,134.9,165.2,134.9z"/>
		<path class="st0" d="M155.6,118.6L155.6,118.6L155.6,118.6C155.7,118.6,155.7,118.6,155.6,118.6z"/>
		<path class="st0" d="M171.3,133.3C171.2,133.3,171.2,133.3,171.3,133.3C171.2,133.3,171.2,133.3,171.3,133.3L171.3,133.3z"/>
		<path class="st0" d="M172,132.3c-1.1,0-2.1,0-3.2,0c-0.3,0-0.5,0.1-0.6,0.3c0.1-0.2,0.3-0.3,0.6-0.3
			C169.9,132.4,171,132.4,172,132.3c0.5,0,0.6,0.2,0.4,0.7l0,0C172.6,132.5,172.6,132.3,172,132.3z"/>
		<path class="st0" d="M182,125.9c0.2-0.5,0.5-0.9,0.7-1.4C182.5,125,182.2,125.4,182,125.9z"/>
		<path class="st0" d="M180.8,147.3c-0.3,0.3-0.7,0.4-1.1,0.5c-0.3,0.1-0.6,0.2-0.8,0.4c0.2-0.2,0.5-0.3,0.8-0.3
			C180.1,147.8,180.5,147.6,180.8,147.3z"/>
		<path class="st0" d="M177.1,129.2c0.1,0.2,0.4,0.2,0.7,0.3C177.5,129.4,177.3,129.4,177.1,129.2z"/>
		<path class="st0" d="M179,129.5c0.6,0,1-0.2,1.5-0.7C180.2,129.2,179.7,129.4,179,129.5z"/>
		<path class="st0" d="M186.5,149.5c-0.2,0-0.4,0-0.6,0C186.1,149.5,186.3,149.5,186.5,149.5c0.7,0,0.7-0.6,0.9-1.1
			c0-0.1,0-0.2,0-0.3c0,0.1,0,0.2,0,0.3C187.2,148.9,187.2,149.5,186.5,149.5z"/>
		<path class="st0" d="M195,129.2c-0.3,0.2-0.5,0.6-0.7,1.1c-1.1,2.5-2.4,4.9-3.6,7.5c1.3-2.6,2.6-5,3.6-7.5
			C194.5,129.8,194.7,129.4,195,129.2z"/>
		<path class="st0" d="M181.4,127.2L181.4,127.2c-0.1,0.3-0.2,0.5-0.3,0.7C181.3,127.7,181.3,127.5,181.4,127.2L181.4,127.2z"/>
		<path class="st0" d="M197,135.4c-1.4,1.5-3.3,2.4-5.6,2.4C193.7,137.8,195.7,136.9,197,135.4z"/>
		<path class="st0" d="M199.4,137.8c-2.6,1.4-5.5,1.8-8.4,1.8c-1,0-1.5,0.3-1.9,1.2c-0.9,2-1.9,4-2.9,6c-0.1,0.2-0.2,0.4-0.2,0.6
			c0-0.2,0.1-0.4,0.2-0.6c1-2,2-3.9,2.9-6c0.4-0.9,0.9-1.2,1.9-1.2C193.9,139.7,196.8,139.3,199.4,137.8c2.4-1.3,4-3.2,4.6-5.9
			c0.1-0.3,0.1-0.7,0.1-1c0,0.3-0.1,0.6-0.1,0.9C203.4,134.6,201.8,136.5,199.4,137.8z"/>
		<path class="st0" d="M189.1,128.6c-0.3-0.1-0.5-0.2-0.5-0.4C188.6,128.4,188.8,128.5,189.1,128.6c0.4,0.1,0.6,0.3,0.6,0.6
			C189.7,128.8,189.5,128.7,189.1,128.6z"/>
		<path class="st0" d="M263,127.1c-0.9,2-1.8,3.7-2.7,5.5c-0.1,0.1-0.2,0.2-0.4,0.3c0.2,0,0.3-0.1,0.4-0.3
			C261.2,130.8,262.1,129,263,127.1L263,127.1z"/>
		<path class="st0" d="M240.7,132.7c0.2,0,0.5,0,0.6-0.4c0.7-1.6,1.5-3.2,2.3-4.7c0,0,0-0.1,0.1-0.2c-0.8,1.6-1.6,3.4-2.4,4.9
			C241.2,132.7,240.9,132.7,240.7,132.7z"/>
		<path class="st0" d="M216.1,148.5c-0.2,0.4-0.3,0.9-0.9,0.9c-1.2,0-2.4,0-3.6,0c1.2,0,2.4,0,3.6,0
			C215.9,149.5,215.9,149,216.1,148.5c0.2-0.2,0.1-0.4,0-0.5C216.2,148.2,216.2,148.3,216.1,148.5z"/>
		<path class="st0" d="M216.7,127.3c-0.3,4.1-0.7,8.2-1,12.3c-0.2,2.3-0.4,4.6-0.6,6.9c0,0.4,0,0.7,0.2,0.9
			c-0.2-0.2-0.2-0.6-0.2-0.9c0.2-2.3,0.4-4.6,0.6-6.9C216.1,135.6,216.4,131.5,216.7,127.3c0.1-0.1,0.1-0.3,0-0.5
			C216.8,127,216.7,127.2,216.7,127.3z"/>
		<path class="st0" d="M136.5,158.3c10,0,20.1,0,30.1,0l0,0C156.5,158.3,146.5,158.3,136.5,158.3L136.5,158.3z"/>
		<path class="st0" d="M228.7,139.6c-1-1-1.9-2-2.2-3.4c-0.1-0.6-0.2-1.2-0.2-1.7c0,0.6,0,1.1,0.2,1.7
			C226.8,137.5,227.7,138.6,228.7,139.6c0.9,0.9,1.8,1.7,2.5,2.7c0.5,0.7,0.7,1.4,0.7,2.1c0-0.7-0.2-1.5-0.7-2.1
			C230.5,141.2,229.6,140.4,228.7,139.6z"/>
		<path class="st0" d="M235.7,136.8c-0.8-0.8-1.6-1.6-2.3-2.5c-1.8-2.3-0.9-5.2,1.9-6c0.5-0.1,0.9-0.2,1.3-0.2c-0.4,0-0.9,0-1.3,0.2
			c-2.8,0.9-3.8,3.8-1.9,6C234.1,135.2,234.9,136,235.7,136.8c3.6,3.7,2.2,7.8-0.2,10.2c-3.1,3.1-6.8,3.7-10.9,2.6
			c-0.8-0.2-1.6-0.5-2.4-0.8c-0.5-0.2-1-0.1-1.3,0.3c-0.6,0.8-1.3,0.6-2.2,0.5l0,0c0.9,0,1.6,0.2,2.3-0.5c0.3-0.4,0.8-0.4,1.3-0.3
			c0.8,0.3,1.6,0.6,2.4,0.8c4.1,1.1,7.9,0.5,10.9-2.6C237.9,144.6,239.4,140.5,235.7,136.8z"/>
		<path class="st0" d="M211.2,133c0.1,1.4-0.1,2.5-0.2,3.7c-0.1,1.2-0.2,2.4-0.3,3.5c0,0.3-0.1,0.6-0.5,0.6l0,0
			c0.4,0,0.5-0.3,0.5-0.6c0.1-1.2,0.3-2.4,0.3-3.5C211.1,135.5,211.4,134.4,211.2,133L211.2,133z"/>
		<path class="st0" d="M216.6,126.7c-0.4-0.3-2.4-0.2-2.7,0.2c-5.4,6.4-11.1,13.2-16.5,19.6c5.4-6.4,10.9-12.9,16.3-19.3
			C214,126.8,216.2,126.4,216.6,126.7z"/>
		<path class="st0" d="M157.8,135.9c2.7,0,5.5,0,8.2,0c1.3,0,2.2-0.6,2.6-1.7c0.3-0.8,0.8-1.1,1.6-1c0.1,0,0.1,0,0.2,0
			c-0.1,0-0.2,0-0.2,0c-0.8-0.1-1.3,0.1-1.6,1c-0.4,1.1-1.3,1.7-2.6,1.7C163.3,135.9,160.5,135.9,157.8,135.9
			c-0.4,0-0.7-0.1-0.7-0.3C157.1,135.9,157.3,135.9,157.8,135.9z"/>
		<path class="st0" d="M168.1,150.4c0.1-0.3,0.3-0.3,0.6-0.3l0,0C168.4,150.1,168.2,150.2,168.1,150.4c-0.8,1.6-2.2,2.2-4,2.2l0,0
			C165.9,152.7,167.3,152.1,168.1,150.4z"/>
		<path class="st0" d="M177.1,126.5c0.3,0,0.6-0.1,0.8-0.6C177.7,126.3,177.4,126.4,177.1,126.5z"/>
		<path class="st0" d="M164.7,142.5c-0.3-2-1-2.6-3-2.6l0,0C163.7,139.8,164.5,140.5,164.7,142.5c0,0.2-0.1,0.4,0.2,0.6
			c0.1,0.1,0.3,0.1,0.5,0.1c-0.2,0-0.4,0-0.5-0.1C164.7,142.9,164.8,142.7,164.7,142.5z"/>
		<path class="st0" d="M180.7,118.6c0.4,0,0.6,0.1,0.6,0.2C181.2,118.7,181.1,118.6,180.7,118.6z"/>
		<path class="st11" d="M185.5,122.4c-1.7,0-1.7,0-1-1.5c0-0.1,0.1-0.2,0.1-0.4c-0.5,0-1,0-1.4,0c-1.6,0-1.6,0-0.9-1.4
			c0.2-0.4,0.4-0.8,0.6-1.4c-1.8,0-3.5,0-5.2,0c-6.3,0-12.6,0-18.9,0c-1.2,0-2.4,0-3.6,0c-0.2,0-0.5-0.1-0.6,0l-0.1,0.1
			c-0.5,0.9-0.9,1.8-1.3,2.7c-0.2,0.3,0.2,0.5,0.4,0.6c1.9,1.4,2.2,2.4,1.1,4.6c-4.1,8.7-8.3,17.3-12.3,26c-0.3,0.7-0.7,1.2-1.1,1.6
			c-0.7,0.7-1.6,1-2.8,1.1c-1.3-0.1-1.8,0.7-2.3,1.8c-0.2,0.4-1.1,2.4-1.4,3c0.8,0,1.5,0,2,0c0.7,0,1.3,0,1.5,0
			c-0.6,1.4-0.7,1.6-0.9,2.2c0.4,0,0.7,0,0.9,0c2.7,0,5.4,0,8.1,0h0.1c0,0,0,0-0.1,0c4.8,0,9.5,0,14.3,0c2.8,0,5.6,0,8.4,0
			c0.6,0,0.9-0.1,1.1-0.7c1.2-2.6,2.5-5.3,3.7-7.9c0.3-0.6,0.2-0.8-0.5-0.8s-1.7,0.4-2-0.2c-0.1-0.2-0.1-0.4,0.1-0.6
			c0.1-0.3,0.4-0.7,0.6-1c0-0.1,0.1-0.2,0.1-0.2c0.1-0.2,0.2-0.4,0.3-0.8c-1.6,0-3,0-4.5,0c-0.2,0-0.3,0.1-0.4,0.2s-0.1,0.2-0.1,0.3
			c0,0.2-0.1,0.3-0.2,0.5c-0.5,1-1.4,1.5-2.5,1.5c-3.5,0.1-7,0-10.6,0c-0.5,0-0.7-0.1-0.4-0.6c1.3-2.6,2.5-5.2,3.7-7.8l0,0l0,0
			c0.1-0.3,0.3-0.5,0.7-0.5c1.7,0,3.5,0,5.2,0c0.3,0,0.5,0.1,0.5,0.5c-0.1,0.6,0.3,0.6,0.7,0.6c1.6,0,1.6,0.1,1.8,1.6
			c0,0.4,0.1,0.6,0.5,0.6c0.6,0,1.3,0,1.9,0c0.3,0,0.5-0.1,0.6-0.4c1.6-3.5,3.3-6.9,5-10.5c-1,0-2,0-3,0c0.1-0.4,0.2-0.8,0.4-1.2
			c0.2-0.3,0.4-0.7,0.5-1c0.2-0.5,0.2-0.7-0.4-0.7c-1.1,0-2.1,0-3.2,0c-0.3,0-0.5,0.1-0.6,0.3c0,0.1-0.1,0.1-0.1,0.2
			c-0.2,0.5-0.3,0.9-0.5,1.2c-0.4,0.9-1,1-2.5,1c-1.2,0-2.4,0-3.7,0c1-2.2,2-4.3,3-6.4c0.3-0.5,0.4-1.2,0.7-1.7
			c0.2-0.3,0.4-0.6,0.6-0.8c0.7-0.5,1.9-0.1,2.8-0.1c1.7,0,3.4,0,5.1,0c0.5,0,0.8,0.1,0.7,0.7c-0.1,0.5,0.2,0.7,0.7,0.6
			c0.1,0,0.3,0,0.5,0c1.3,0,1.4,0,1.4,1.3c0,0.2,0,0.3,0,0.4c0,0,0,0,0,0.1s0.1,0.1,0.1,0.1c0.1,0.2,0.4,0.2,0.7,0.3
			c0.5,0,0.9,0.1,1.2,0c0.6-0.1,1.1-0.3,1.5-0.7c0.2-0.2,0.4-0.5,0.6-0.9c0.1-0.2,0.1-0.3,0.2-0.5c0,0,0.4-0.8,0.4-0.9
			c1.5-3.1-0.1-0.2,0.2-0.6c0.2-0.5,0.5-0.9,0.7-1.4c2.1,4,3,8.1,3.2,12.4c1.2-2.5,2.5-5,3.7-7.4c0.1-0.1,0.1-0.2,0.1-0.3
			c0-0.3-0.2-0.5-0.6-0.5c-0.3-0.1-0.5-0.2-0.5-0.4c0-0.1,0-0.2,0-0.3c0.1-0.4,0.2-1,0.8-1c3.8,0.1,7.7-0.3,11.5,0.2
			c2.3,0.3,3.4,1.8,3.3,3.9c0,0.3-0.1,0.6-0.1,1c-0.6,2.7-2.2,4.6-4.6,5.9c-2.6,1.4-5.5,1.8-8.4,1.8c-1,0-1.5,0.3-1.9,1.2
			c-0.9,2-1.9,4-2.9,6c-0.1,0.2-0.2,0.4-0.2,0.6c0,0.3,0.2,0.5,0.7,0.5c0.3,0,0.6,0.1,0.6,0.3c0,0.1,0,0.2,0,0.3
			c-0.1,0.5-0.2,1.1-0.9,1.1c-0.2,0-0.4,0-0.6,0c-0.9,0-1.8,0.1-2.7,0.1c-0.7,1.5-1.6,2.9-2.4,4.3c0.1,0,0.3,0,0.4,0
			c25.2,0,52.1,0,77.3,0c4.2-8.8,10.5-22.1,15-31.6C244.8,122.3,214.2,122.4,185.5,122.4z M181.1,119.3c-1.1,2.2-2.2,4.3-3.2,6.6
			c-0.2,0.5-0.5,0.6-0.8,0.6c-0.2,0-0.4,0-0.6,0c-0.1,0-0.2,0-0.3,0c-0.7,0-0.9-0.2-1-1c-0.2-1.9-0.9-2.4-2.8-2.4
			c-2.9,0-5.7,0-8.6,0c-0.5,0-0.7,0.1-1,0.6c-1.8,3.9-3.7,7.8-5.5,11.7c-0.1,0.2-0.1,0.3-0.1,0.4c0,0.3,0.2,0.3,0.7,0.3
			c2.7,0,5.5,0,8.2,0c1.3,0,2.2-0.6,2.6-1.7c0.3-0.8,0.8-1.1,1.6-1c0.1,0,0.1,0,0.2,0l0,0l0,0c0.2,0,0.5,0,0.8,0l0,0l0,0l0,0
			c-1.1,2.4-2.1,4.5-3.2,6.7c-0.4,0.9-0.8,1.7-1.2,2.6c-0.2,0.4-0.9,0.7-1.5,0.6c-0.2,0-0.4,0-0.5-0.1c-0.2-0.1-0.2-0.4-0.2-0.6
			c-0.3-2-1-2.6-3-2.6s-4,0-6,0c-0.4,0-0.7,0-0.9,0.5c-1.9,4.1-3.9,8.2-5.8,12.3c0.1,0.1,0.3,0.1,0.4,0.2c0.1,0,0.3,0,0.4,0l0,0
			c4.8,0,9.5,0,14.3,0c1.7,0,3.2-0.6,3.9-2.2c0.1-0.3,0.3-0.3,0.6-0.3l0,0c0.7,0,1.4,0,2.2,0l0,0c0.1,0.3-0.1,0.5-0.2,0.7
			c-1,1.9-2.1,4.2-3.1,6.4c-0.2,0.4-0.3,0.7-0.9,0.7l0,0l0,0c-10,0-20.1,0-30.1,0c-0.1,0,0,0-0.3,0c0,0,0,0,0-0.1l0,0
			c0.4-0.9,0.8-1.7,1.2-2.5c0.1-0.3,0.4-0.3,0.7-0.3c0.8-0.1,1.6-0.2,2.3-0.5c1.1-0.4,2-1.1,2.5-2.2c4.3-9.1,8.6-18.1,13-27.2
			c0.7-1.5,0.3-3.3-1-4.5c-0.3-0.2-0.9-0.3-0.5-0.9c0,0,0-0.1,0.1-0.1c0.3-0.7,0.3-1.4,1.2-1.4h0.1l0,0c8.3,0,16.6,0,25,0l0,0l0,0
			c0.4,0,0.6,0.1,0.6,0.2C181.2,119,181.2,119.1,181.1,119.3z M216.8,127.4c-0.3,4.1-0.7,8.2-1,12.3c-0.2,2.3-0.4,4.6-0.6,6.9
			c0,0.3,0,0.7,0.2,0.9c0.1,0.1,0.2,0.1,0.3,0.2c0.2,0.1,0.4,0.2,0.5,0.3s0.1,0.3,0,0.5c-0.2,0.4-0.3,0.9-0.9,0.9
			c-1.2,0-2.4,0-3.6,0s-2.4,0-3.6,0c-0.6,0-0.7-0.2-0.4-0.7s0.6-0.9,1.2-1c0.9-0.1,1.3-0.8,1.4-1.6c0.1-0.8,0.1-1.7,0.2-2.5
			c0.1-0.6-0.1-0.7-0.7-0.7c-2,0-4.1,0-6.1,0c-0.3,0-0.5,0-0.7,0.2c-0.7,0.9-1.6,1.8-2.2,2.8c-0.5,0.9-0.4,1.2,0.5,1.7
			c0.3,0.2,0.6,0.4,0.4,0.8c-0.2,0.4-0.2,1-0.9,1c-1.9,0-3.8,0-5.7,0c-0.4,0-0.5-0.1-0.3-0.5c0.2-0.5,0.5-0.9,1.1-1.1
			c0.7-0.2,1.3-0.7,1.7-1.3c5.4-6.4,11.1-13.2,16.5-19.6c0.3-0.4,2.3-0.5,2.7-0.2c0.1,0,0.1,0.1,0.1,0.1
			C216.8,127,216.8,127.2,216.8,127.4z M224.6,149.6c-0.8-0.2-1.6-0.5-2.4-0.8c-0.5-0.2-1-0.1-1.3,0.3c-0.6,0.7-1.4,0.5-2.3,0.5l0,0
			l0,0c1-2.1,2-4,3-6c0.2-0.5,0.6-0.3,0.9-0.3c0.4,0,0.8,0.2,0.9,0.6c0.1,0.4,0.2,0.8,0.2,1.2c0.2,2.7,1.9,3.4,4.3,3.2
			c1.3-0.1,2.4-0.8,3.2-1.8c0.5-0.6,0.8-1.4,0.8-2.1s-0.2-1.4-0.7-2.1c-0.7-1-1.7-1.8-2.5-2.6c-1-1-1.9-2-2.2-3.4
			c-0.1-0.6-0.2-1.2-0.2-1.7c0.1-1.7,0.8-3.2,1.9-4.6c2.7-3.4,8.2-4.7,11.7-2.4c0.7,0.5,1.4,0.5,2-0.2c0,0,0.1,0,0.1-0.1
			c0,0,0.1,0,0.1-0.1c0.4-0.2,0.9-0.1,1.3-0.1c0.3,0,0.3,0,0.3,0.2c0,0.1-0.1,0.1-0.1,0.2s0,0.1-0.1,0.2c-0.8,1.6-1.6,3.2-2.3,4.7
			c-0.1,0.3-0.4,0.4-0.6,0.4c-0.1,0-0.3,0-0.4,0c-0.5,0-0.8-0.3-0.9-0.7c-0.1-0.5-0.2-1-0.3-1.5c-0.3-1.4-1.2-2.3-2.4-2.4
			c-0.4,0-0.8,0-1.3,0.2c-2.8,0.9-3.8,3.8-1.9,6c0.7,0.9,1.5,1.7,2.3,2.5c3.7,3.7,2.2,7.8-0.2,10.2
			C232.4,150.1,228.7,150.8,224.6,149.6z M259.9,132.8c-0.5,0.1-1.3-0.2-1.4-0.7c-0.2-0.6-0.3-1.2-0.4-1.8c-0.3-1.5-1.1-2.2-2.7-2.2
			c-1.7,0-2.8,0.9-3.6,2.3c-0.7,1.3-0.4,2.6,0.5,3.7c0.7,0.8,1.4,1.5,2.1,2.3c3.6,3.8,3.2,8.4-1,11.5c-3,2.2-6.3,2.6-9.8,1.6
			c-0.6-0.2-1.3-0.4-1.9-0.7c-0.9-0.4-1.6-0.4-2.3,0.4c-0.5,0.5-1.1,0.2-1.9,0.2c0.7-1.4,1.3-2.6,1.9-3.9c0.3-0.6,0.7-1.2,0.9-1.9
			c0.2-0.5,0.6-0.6,1.1-0.6s0.9,0.3,0.9,0.8c0.1,0.3,0.1,0.6,0.2,0.9c0.3,2.7,1.9,3.9,4.5,3.3c1-0.2,2-0.7,2.7-1.4
			c1.4-1.4,1.5-3.2,0.3-4.8c-0.8-1.1-1.9-1.9-2.8-2.9c-0.9-1-1.7-2.1-1.9-3.6c-0.3-2.7,0.8-4.9,2.7-6.6c2.7-2.5,7.5-3.6,10.9-1.4
			c0.7,0.4,1.3,0.5,2-0.1c0.1-0.1,0.1-0.1,0.2-0.2h0.1c0,0,0,0,0.1,0c0.6-0.2,1.4,0,1.5-0.1l0,0l0,0c-0.9,2-1.8,3.7-2.7,5.5
			C260.2,132.7,260.1,132.8,259.9,132.8z"/>
		<path class="st12" d="M154.6,125.7c1.1-2.2,0.8-3.1-1.1-4.6c-0.2-0.2-0.6-0.3-0.4-0.6c0.4-0.9,0.9-1.8,1.3-2.7
			c0-0.1,0.1-0.1,0.1-0.1c0.2-0.1,0.4-0.1,0.6-0.1c1.2,0,2.4,0,3.6,0c6.3,0,12.6,0,18.9,0c-8-8.1-20.6-10.2-31-4.4
			c-3.9,2.2-7.1,5.3-9.5,9.1l0,0l0,0c-1.4,2.2-2.4,4.7-3.2,7.2l0,0c-0.3,1.7-0.7,3.3-0.9,5.1l0,0l0,0c-0.1,1.1-0.1,2.1-0.1,3.2
			c0,1.3,0.1,2.5,0.2,3.8c0.3,1.7,0.7,3.4,1.2,5.1c0.2,0.5,0.4,0.9,0.5,1.3c0.2,0.5,0.5,1,0.7,1.5c0.7,1.5,1.5,3,2.4,4.4
			c0.2,0.2,0.3,0.3,0.4,0.5c1.1-0.1,2-0.4,2.8-1c0.4-0.4,0.8-0.9,1.1-1.6C146.3,143,150.5,134.4,154.6,125.7z"/>
		<path class="st13" d="M178.4,149.6c-0.6,0-0.7-0.2-0.4-0.7c0.1-0.3,0.3-0.5,0.6-0.7c0.2-0.2,0.5-0.3,0.8-0.4
			c0.4-0.1,0.8-0.2,1.1-0.5c0.1-0.1,0.2-0.2,0.2-0.3c1.6-3.4,3.2-6.7,4.9-10.1l0,0c-0.2-4.3-1.1-8.5-3.2-12.4
			c-0.3,0.5-0.5,1-0.7,1.4s-0.4,0.9-0.6,1.3l0,0c-0.1,0.2-0.1,0.5-0.3,0.7c-0.2,0.4-0.4,0.7-0.6,0.9c-0.5,0.6-0.9,0.7-1.5,0.7
			c-0.3,0-0.7,0-1.2,0c-0.4,0-0.6-0.1-0.7-0.3l-0.1-0.1c0,0,0,0,0-0.1s0-0.2,0-0.4c0-1.3-0.1-1.3-1.4-1.3c-0.1,0-0.3,0-0.5,0
			c-0.5,0.1-0.7-0.1-0.7-0.6c0.1-0.5-0.2-0.7-0.7-0.7c-1.7,0-3.4,0-5.1,0c-1,0-2.1-0.4-2.8,0.1c-0.3,0.2-0.5,0.5-0.6,0.8
			c-0.3,0.5-0.4,1.1-0.7,1.7c-1,2.1-2,4.2-3,6.4c1.3,0,2.5,0,3.7,0c1.5,0,2.1-0.1,2.5-0.9c0.1-0.3,0.3-0.7,0.5-1.2
			c0-0.1,0.1-0.2,0.1-0.2c0.1-0.2,0.3-0.3,0.6-0.3c1.1,0,2.1,0,3.2,0c0.6,0,0.6,0.2,0.4,0.7l0,0c-0.2,0.3-0.3,0.6-0.5,1
			c-0.2,0.3-0.3,0.7-0.4,1.1c1,0,1.9,0,3,0c-1.7,3.6-3.4,7.1-5,10.5l0,0c-0.1,0.3-0.3,0.4-0.6,0.4c-0.6,0-1.3,0-1.9,0
			c-0.4,0-0.5-0.2-0.5-0.6c-0.1-1.6-0.1-1.6-1.8-1.6c-0.5,0-0.8-0.1-0.7-0.6c0-0.4-0.2-0.5-0.5-0.5c-1.7,0-3.5,0-5.2,0
			c-0.4,0-0.5,0.2-0.7,0.5l0,0c-1.2,2.6-2.5,5.2-3.7,7.8c-0.2,0.5-0.1,0.6,0.4,0.6c3.5,0,7.1,0.1,10.6,0c1.1,0,2-0.5,2.5-1.5
			c0.1-0.2,0.1-0.3,0.2-0.5c0-0.1,0.1-0.2,0.1-0.3c0.1-0.1,0.2-0.2,0.4-0.2c1.5,0,2.9,0,4.5,0c-0.1,0.4-0.2,0.6-0.3,0.8
			c0,0.1-0.1,0.2-0.1,0.3c-0.2,0.3-0.4,0.7-0.6,1c-0.1,0.2-0.1,0.4,0,0.6c0.3,0.5,1.3,0.2,2,0.2s0.7,0.2,0.5,0.8
			c-1.3,2.6-2.5,5.3-3.7,7.9l0,0c-0.3,0.5-0.5,0.7-1.1,0.7c-2.8,0-5.6,0-8.4,0c-4.8,0-9.5,0-14.3,0c0,0,0,0,0.1,0
			c0.4,0.2,0.7,0.5,1.1,0.7c9.4,4.6,18.4,3.9,27.1-2c2.5-1.7,4.4-3.9,6.2-6.2l0,0c0.9-1.4,1.7-2.8,2.4-4.3
			C181.3,149.6,179.8,149.6,178.4,149.6z"/>
		<path class="st11" d="M134.3,146.7c-5.2,0-12.6,0-18.3,0c-0.9,2-2.5,5.2-3.5,7.3c8.2,0,17.3,0,25.4,0c-0.9-1.4-1.7-2.9-2.4-4.4
			c-0.2-0.5-0.5-1-0.7-1.5S134.4,147.1,134.3,146.7z"/>
		<path class="st14" d="M133,134.6c-2.7,0-6.4-0.1-9.1-0.1c-0.6,0-0.8,0-2,0c-1,2-2.8,5.8-3.4,7c5,0,9.8,0,14.6,0
			c-0.1-1.3-0.2-2.5-0.2-3.8C132.8,136.7,132.8,135.6,133,134.6L133,134.6z"/>
		<path class="st15" d="M137.2,122.4C137.2,122.4,137.1,122.4,137.2,122.4c-2.5,0-6.5,0-9.4,0c-1,2.2-2.2,4.5-2.7,5.5
			c-0.2,0.5-0.5,1-0.8,1.7c3.3,0,6.5,0,9.6,0l0,0C134.8,127,135.8,124.6,137.2,122.4z"/>
		<path class="st16" d="M180.7,118.6L180.7,118.6C180.7,118.6,180.6,118.6,180.7,118.6c-8.4,0-16.7,0-25,0h-0.1
			c-0.9,0.1-1,0.7-1.2,1.4v0.1c-0.3,0.6,0.2,0.7,0.5,0.9c1.3,1.1,1.7,2.9,1,4.5c-4.3,9.1-8.6,18.1-13,27.2c-0.5,1.1-1.4,1.8-2.5,2.2
			c-0.7,0.3-1.5,0.4-2.3,0.5c-0.3,0-0.5,0-0.7,0.3c-0.4,0.8-0.8,1.6-1.2,2.5l0,0c0,0,0,0,0,0.1c0.4,0,0.3,0,0.3,0l0,0
			c10,0,20.1,0,30.1,0l0,0c0.6,0,0.7-0.3,0.9-0.7c1.1-2.2,2.1-4.5,3.2-6.7c0.1-0.2,0.3-0.4,0.2-0.7l0,0c-0.7,0-1.4,0-2.2,0
			c-0.3,0-0.4,0-0.6,0.3c-0.8,1.6-2.2,2.2-3.9,2.2l0,0c-4.8,0-9.5,0-14.3,0c-0.1,0-0.3,0-0.4,0c-0.1,0-0.3,0-0.4-0.2
			c2-4.1,3.9-8.2,5.8-12.3c0.2-0.4,0.5-0.5,0.9-0.5c2,0,4,0,6,0l0,0c2,0,2.7,0.7,3,2.6c0,0.2,0,0.4,0.2,0.6c0.1,0.1,0.3,0.1,0.5,0.1
			c0.6,0,1.3-0.3,1.5-0.6c0.4-0.9,0.8-1.7,1.2-2.6c1-2.2,2.1-4.3,3.2-6.7l0,0l0,0c-0.3,0-0.6,0-0.8,0l0,0l0,0c-0.1,0-0.1,0-0.2,0
			c-0.8-0.1-1.3,0.1-1.6,1c-0.4,1.1-1.3,1.7-2.6,1.7c-2.7,0-5.5,0-8.2,0c-0.5,0-0.7,0-0.7-0.3c0-0.1,0.1-0.2,0.1-0.4
			c1.9-3.9,3.7-7.8,5.5-11.7c0.2-0.5,0.5-0.6,1-0.6c2.9,0,5.7,0,8.6,0c1.9,0,2.6,0.5,2.8,2.4c0.1,0.9,0.3,1,1,1c0.1,0,0.2,0,0.3,0
			c0.2,0,0.4,0,0.6,0c0.3,0,0.6-0.1,0.8-0.6c1-2.2,2.1-4.4,3.2-6.6c0.1-0.2,0.2-0.4,0.2-0.5C181.2,118.7,181.1,118.6,180.7,118.6z"
			/>
		<path class="st16" d="M220.7,149c0.3-0.4,0.8-0.4,1.3-0.3c0.8,0.3,1.6,0.6,2.4,0.8c4.1,1.1,7.9,0.5,10.9-2.6
			c2.4-2.4,3.9-6.5,0.2-10.2c-0.8-0.8-1.6-1.6-2.3-2.5c-1.8-2.3-0.9-5.2,1.9-6c0.5-0.1,0.9-0.2,1.3-0.2c1.2,0.1,2.1,0.9,2.4,2.4
			c0.1,0.5,0.2,1,0.3,1.5c0.1,0.4,0.4,0.7,0.9,0.7c0.1,0,0.3,0,0.4,0c0.2,0,0.4,0,0.6-0.4c0.7-1.5,1.6-3.4,2.4-4.9
			c0-0.1,0.1-0.1,0.1-0.2c0.1-0.2,0.1-0.1-0.3-0.2c-0.4,0-0.9-0.2-1.3,0.1c0,0-0.1,0-0.1,0.1c0,0-0.1,0-0.1,0.1
			c-0.7,0.7-1.3,0.6-2,0.2c-3.5-2.3-9-0.9-11.7,2.4c-1.1,1.4-1.8,2.9-1.9,4.6c0,0.6,0,1.1,0.2,1.7c0.3,1.4,1.2,2.4,2.2,3.4
			c0.9,0.9,1.8,1.6,2.5,2.6c0.5,0.7,0.7,1.4,0.7,2.1s-0.3,1.4-0.8,2.1c-0.8,1-1.9,1.7-3.2,1.8c-2.4,0.3-4.1-0.5-4.3-3.2
			c0-0.4-0.1-0.8-0.2-1.2c-0.1-0.4-0.5-0.6-0.9-0.6c-0.3,0-0.7-0.1-0.9,0.3c-1,2-1.9,4-3,6l0,0C219.4,149.6,220.2,149.8,220.7,149z"
			/>
		<path class="st17" d="M260.3,132.6c0.9-1.7,1.8-3.5,2.7-5.5l0,0c-0.1,0-0.9-0.1-1.5,0.1c0,0,0,0-0.1,0h-0.1
			c-0.1,0-0.1,0.1-0.2,0.2c-0.6,0.7-1.3,0.6-2,0.1c-3.4-2.2-8.2-1.1-10.9,1.4c-1.9,1.8-3,3.9-2.7,6.6c0.2,1.4,0.9,2.5,1.9,3.6
			c0.9,1,2,1.8,2.8,2.9c1.2,1.6,1.1,3.4-0.3,4.8c-0.7,0.8-1.7,1.2-2.7,1.4c-2.6,0.5-4.2-0.7-4.5-3.3c0-0.3-0.1-0.6-0.2-0.9
			c-0.1-0.5-0.4-0.8-0.9-0.8s-0.9,0-1.1,0.6c-0.3,0.6-0.6,1.3-0.9,1.9c-0.6,1.3-1.2,2.5-1.9,3.9c0.7-0.1,1.4,0.3,1.9-0.2
			c0.7-0.7,1.5-0.7,2.3-0.4c0.6,0.3,1.2,0.5,1.9,0.7c3.5,1,6.8,0.6,9.8-1.6c4.2-3.1,4.6-7.8,1-11.5c-0.7-0.7-1.4-1.5-2.1-2.3
			c-0.9-1.1-1.2-2.4-0.5-3.7c0.7-1.4,1.9-2.3,3.6-2.3c1.5,0,2.4,0.7,2.7,2.2c0.1,0.6,0.2,1.2,0.4,1.8c0.2,0.5,0.9,0.8,1.4,0.7
			C260.1,132.8,260.2,132.7,260.3,132.6z"/>
		<path class="st18" d="M181,147c-0.1,0.1-0.1,0.2-0.2,0.3c-0.3,0.3-0.7,0.4-1.1,0.5c-0.3,0.1-0.6,0.2-0.8,0.3
			c-0.2,0.2-0.4,0.4-0.6,0.7c-0.3,0.5-0.2,0.7,0.4,0.7c1.4,0,2.9,0,4.4,0c0.9,0,1.8,0,2.7-0.1c0.2,0,0.4,0,0.6,0
			c0.7,0,0.7-0.6,0.9-1.1c0-0.1,0-0.2,0-0.3c-0.1-0.2-0.4-0.3-0.6-0.3c-0.5-0.1-0.7-0.2-0.7-0.5c0-0.2,0.1-0.4,0.2-0.6
			c1-2,2-3.9,2.9-6c0.4-0.9,0.9-1.2,1.9-1.2c2.9,0.1,5.7-0.3,8.4-1.8c2.4-1.3,4-3.2,4.6-5.9c0.1-0.3,0.1-0.6,0.1-0.9
			c0.1-2.1-1-3.5-3.3-3.9c-3.8-0.5-7.6-0.1-11.5-0.2c-0.6,0-0.6,0.6-0.8,1c0,0.1-0.1,0.2,0,0.3c0,0.2,0.3,0.3,0.5,0.4
			c0.4,0.1,0.6,0.3,0.6,0.6c0,0.1,0,0.2-0.1,0.3c-1.2,2.5-2.5,5-3.7,7.4l0,0C184.3,140.3,182.7,143.6,181,147z M194.3,130.2
			c0.2-0.5,0.4-0.8,0.7-1.1c0.4-0.4,1-0.6,1.8-0.5c2.2,0.1,2.7,0.8,2.2,2.9c-0.4,1.5-1,2.9-2,3.9c-1.4,1.5-3.3,2.4-5.6,2.4
			c-0.3,0-0.5,0-0.8,0C191.9,135.2,193.2,132.8,194.3,130.2z"/>
		<path class="st19" d="M215.1,146.6c0.2-2.3,0.4-4.6,0.6-6.9c0.3-4.1,0.7-8.2,1-12.3c0-0.2,0.1-0.3,0-0.5l-0.1-0.1
			c-0.4-0.3-2.6,0.1-3,0.5c-5.4,6.4-10.9,12.9-16.3,19.3c-0.5,0.6-1,1-1.7,1.3c-0.6,0.2-0.9,0.6-1.1,1.1c-0.2,0.4-0.1,0.5,0.3,0.5
			c1.9,0,3.8,0,5.7,0c0.7,0,0.7-0.6,0.9-1s-0.1-0.6-0.4-0.8c-0.9-0.5-1-0.8-0.5-1.7c0.6-1,1.5-1.9,2.2-2.8c0.2-0.3,0.5-0.2,0.7-0.2
			c2,0,4.1,0,6.1,0c0.5,0,0.8,0.1,0.7,0.7c-0.1,0.8-0.1,1.7-0.2,2.5c-0.1,0.8-0.5,1.4-1.4,1.6c-0.6,0.1-0.9,0.5-1.2,1
			c-0.2,0.5-0.2,0.7,0.4,0.7c1.2,0,2.4,0,3.6,0s2.4,0,3.6,0c0.7,0,0.7-0.5,0.9-0.9c0.1-0.2,0.1-0.4,0-0.5s-0.3-0.2-0.5-0.3
			c-0.1-0.1-0.2-0.1-0.3-0.2C215.1,147.3,215.1,146.9,215.1,146.6z M211,136.7c-0.1,1.2-0.2,2.3-0.3,3.5c0,0.3-0.1,0.6-0.5,0.6l0,0
			c-1.7,0-3.5,0-5.4,0c2.2-2.7,4.3-5.2,6.4-7.8l0,0l0,0C211.4,134.4,211.1,135.5,211,136.7z"/>
		<path class="st20" d="M197,135.4c0.9-1,1.6-2.3,2-3.9c0.5-2.1-0.1-2.7-2.2-2.9c-0.8-0.1-1.4,0.1-1.8,0.5c-0.3,0.2-0.5,0.6-0.7,1
			c-1.1,2.5-2.4,5-3.6,7.5c0.3,0,0.5,0,0.8,0C193.7,137.8,195.7,136.9,197,135.4z"/>
		<path class="st20" d="M210.7,140.2c0.1-1.2,0.3-2.3,0.3-3.5c0.1-1.2,0.3-2.3,0.2-3.7l0,0c-2.2,2.6-4.2,5.1-6.4,7.8
			c1.9,0,3.7,0,5.4,0C210.6,140.8,210.7,140.6,210.7,140.2z"/>
	</g>
</g>
</svg>
