<?xml version="1.0" encoding="UTF-8"?>
<svg width="105px" height="105px" viewBox="0 0 105 105" version="1.1" xmlns="http://www.w3.org/2000/svg" xmlns:xlink="http://www.w3.org/1999/xlink">
    <!-- Generator: Sketch 45.2 (43514) - http://www.bohemiancoding.com/sketch -->
    <title>Add Account Graphic</title>
    <desc>Created with Sketch.</desc>
    <defs>
        <circle id="path-1" cx="48.5" cy="48.5" r="48.5"></circle>
        <filter x="-7.2%" y="-5.2%" width="114.4%" height="114.4%" filterUnits="objectBoundingBox" id="filter-2">
            <feOffset dx="0" dy="2" in="SourceAlpha" result="shadowOffsetOuter1"></feOffset>
            <feGaussianBlur stdDeviation="2" in="shadowOffsetOuter1" result="shadowBlurOuter1"></feGaussianBlur>
            <feComposite in="shadowBlurOuter1" in2="SourceAlpha" operator="out" result="shadowBlurOuter1"></feComposite>
            <feColorMatrix values="0 0 0 0 0   0 0 0 0 0   0 0 0 0 0  0 0 0 0.1 0" type="matrix" in="shadowBlurOuter1"></feColorMatrix>
        </filter>
        <ellipse id="path-3" cx="14.4" cy="14.5588235" rx="14.4" ry="14.2533937"></ellipse>
    </defs>
    <g id="##-screens-iphone" stroke="none" stroke-width="1" fill="none" fill-rule="evenodd">
        <g id="Get---Branching" transform="translate(-20.000000, -250.000000)">
            <g id="Get" transform="translate(24.000000, 252.000000)">
                <g id="Add-Account-Graphic">
                    <g id="Group">
                        <g id="bg">
                            <g id="Oval">
                                <use fill="black" fill-opacity="1" filter="url(#filter-2)" xlink:href="#path-1"></use>
                                <use fill="#FFFFFF" fill-rule="evenodd" xlink:href="#path-1"></use>
                                <circle stroke="#FBFBFB" stroke-width="5" cx="48.5" cy="48.5" r="46"></circle>
                            </g>
                        </g>
                    </g>
                    <g id="Group-4" transform="translate(14.000000, 20.000000)">
                        <g id="Group-3" transform="translate(15.000000, 0.000000)">
                            <g id="Group-2">
                                <circle id="Oval-2" stroke="#FFFFFF" stroke-width="2" fill="#F2FBFD" cx="25.826087" cy="25.826087" r="25.826087"></circle>
                                <path d="M25.826087,0 C11.5623391,0 0,11.5623391 0,25.826087 C0,40.0872522 11.5623391,51.6521739 25.826087,51.6521739 C40.0872522,51.6521739 51.6521739,40.0872522 51.6521739,25.826087 C51.6521739,11.5442609 40.0304348,0 25.826087,0 M25.826087,7.74782609 C30.1054696,7.74782609 33.573913,11.2162696 33.573913,15.4956522 C33.573913,19.7750348 30.1054696,23.2434783 25.826087,23.2434783 C21.5467043,23.2434783 18.0782609,19.7750348 18.0782609,15.4956522 C18.0782609,11.2162696 21.5467043,7.74782609 25.826087,7.74782609 M25.826087,44.4208696 C19.3695652,44.4208696 13.662,41.1151304 10.3304348,36.1565217 C10.407913,30.9913043 20.6608696,28.1504348 25.826087,28.1504348 C30.9913043,28.1504348 41.2442609,30.9913043 41.3217391,36.1565217 C37.9901739,41.1151304 32.2826087,44.4208696 25.826087,44.4208696" id="Page-1" fill="#732B90"></path>
                            </g>
                        </g>
                        <g id="Group-7-Copy" transform="translate(0.000000, 27.000000)">
                            <g id="Oval-Copy-2">
                                <use fill="#F47922" fill-rule="evenodd" xlink:href="#path-3"></use>
                                <ellipse stroke="#FFFFFF" stroke-width="3" cx="14.4" cy="14.5588235" rx="15.9" ry="15.7533937"></ellipse>
                            </g>
                            <g id="Group-5" transform="translate(14.661752, 14.287401) rotate(-45.000000) translate(-14.661752, -14.287401) translate(8.661752, 8.287401)" fill="#FFFFFF">
                                <rect id="Rectangle-10" transform="translate(5.664777, 6.016427) rotate(-45.000000) translate(-5.664777, -6.016427) " x="-1.01122672" y="5.00431675" width="13.3520075" height="2.02422145"></rect>
                                <rect id="Rectangle-10-Copy" transform="translate(5.664777, 6.016427) rotate(-315.000000) translate(-5.664777, -6.016427) " x="-1.01122672" y="5.00431675" width="13.3520075" height="2.02422145"></rect>
                            </g>
                        </g>
                    </g>
                </g>
            </g>
        </g>
    </g>
</svg>