<?xml version="1.0" encoding="iso-8859-1"?>
<!-- Generator: Adobe Illustrator 18.1.1, SVG Export Plug-In . SVG Version: 6.00 Build 0)  -->
<svg version="1.1" id="Layer_1" xmlns="http://www.w3.org/2000/svg" xmlns:xlink="http://www.w3.org/1999/xlink" x="0px" y="0px"
	 viewBox="0 0 175 102" style="enable-background:new 0 0 175 102;" xml:space="preserve">
<g>
	<g>
		<path d="M18.086,5.713l-0.788,0.128L16.21,1.752c-0.754-0.237-1.57-0.356-2.448-0.356c-2.11,0-3.742,0.786-4.897,2.358
			s-1.733,3.63-1.733,6.176c0,2.716,0.68,4.882,2.04,6.496s3.248,2.422,5.663,2.422c1.346,0,2.763-0.271,4.253-0.812l0.186,0.812
			c-1.909,1.292-4.066,1.937-6.472,1.937c-3.121,0-5.644-0.935-7.567-2.806c-1.923-1.871-2.885-4.336-2.885-7.394
			c0-3.258,1.055-5.836,3.164-7.736S10.378,0,13.776,0c1.68,0,3.398,0.195,5.155,0.584l0.086,0.142L18.086,5.713z"/>
		<path d="M31.196,0.385h3.623c2.32,0,4.725-0.019,7.216-0.057l0.1,0.114l-0.888,4.744L40.474,5.3l-0.916-3.462h-5.541v7.565h0.773
			c0.83,0,1.723-0.009,2.678-0.028c0.248-0.009,0.41-0.138,0.487-0.385l0.515-1.952l0.945-0.043
			c-0.029,1.377-0.043,2.408-0.043,3.091c0,0.665,0.014,1.681,0.043,3.049l-0.945,0.071l-0.53-2.009
			c-0.076-0.256-0.224-0.389-0.444-0.399c-0.974-0.019-1.88-0.028-2.721-0.028h-0.759v4.886c0,1.045,0.01,2.08,0.029,3.106h5.727
			l1.804-3.747l0.873-0.128l-0.344,5.328l-0.1,0.1c-2.377-0.028-4.692-0.043-6.944-0.043h-3.794c-1.231,0-2.501,0.014-3.809,0.043
			l-0.072-0.712l1.919-0.527c0.239-0.066,0.368-0.214,0.387-0.442c0.01-0.38,0.017-0.805,0.021-1.275
			c0.005-0.47,0.007-0.99,0.007-1.56V4.445c0-0.475-0.002-0.907-0.007-1.296s-0.012-0.746-0.021-1.068
			c-0.01-0.247-0.124-0.404-0.344-0.47L27.43,1.054l-0.043-0.727C28.724,0.366,29.993,0.385,31.196,0.385z"/>
		<path d="M54.787,18.577c0.01,0.275,0.129,0.442,0.358,0.499l1.833,0.499l0.043,0.741c-1.289-0.028-2.348-0.043-3.179-0.043
			c-0.821,0-1.895,0.014-3.222,0.043l-0.072-0.712l1.919-0.527c0.248-0.076,0.377-0.223,0.387-0.442
			c0.019-0.769,0.029-1.714,0.029-2.835V4.445c0-0.95-0.01-1.738-0.029-2.365c-0.01-0.247-0.124-0.404-0.344-0.47l-1.919-0.556
			l-0.043-0.727c1.336,0.038,2.363,0.057,3.078,0.057c0.935,0,1.823-0.019,2.663-0.057l9.522,11.867
			c0.382,0.475,0.773,0.978,1.174,1.51c-0.019-0.655-0.029-1.287-0.029-1.895V4.388c0-0.921-0.01-1.714-0.029-2.379
			c-0.01-0.218-0.134-0.361-0.372-0.427l-1.833-0.499l-0.043-0.755c1.317,0.038,2.386,0.057,3.207,0.057
			c0.84,0,1.904-0.019,3.193-0.057l0.072,0.727L69.206,1.61c-0.22,0.066-0.334,0.223-0.344,0.47
			c-0.029,0.627-0.043,1.415-0.043,2.365v15.827l-1.647,0.157L55.89,6.368c-0.334-0.427-0.721-0.935-1.16-1.524
			c0.019,0.703,0.029,1.349,0.029,1.937v9.018C54.758,16.92,54.768,17.846,54.787,18.577z"/>
		<path d="M86.868,20.272c-1.68,0-3.284,0.014-4.811,0.043l-0.072-0.712l2.291-0.627c0.239-0.076,0.363-0.228,0.372-0.456
			c0.019-0.712,0.029-1.629,0.029-2.749V1.852h-4.124l-1.317,3.789L78.435,5.77l-0.372-5.328l0.1-0.114
			c2.348,0.038,4.596,0.057,6.744,0.057h3.995c2.148,0,4.41-0.019,6.787-0.057l0.086,0.114l-0.945,5.214l-0.802,0.128l-0.931-3.932
			h-4.138V15.77c0,1.121,0.01,2.037,0.029,2.749c0.01,0.228,0.138,0.38,0.387,0.456l2.248,0.627l0.043,0.712
			C90.08,20.286,88.482,20.272,86.868,20.272z"/>
		<path d="M109.601,15.799c0,0.57,0.002,1.08,0.008,1.531c0.003,0.451,0.011,0.862,0.021,1.232c0.01,0.304,0.119,0.489,0.329,0.556
			l1.489,0.484l0.043,0.712c-1.06-0.028-2.372-0.043-3.938-0.043c-1.67,0-3.16,0.014-4.467,0.043l-0.072-0.712l1.919-0.527
			c0.239-0.066,0.368-0.214,0.387-0.442c0.01-0.38,0.016-0.805,0.022-1.275c0.003-0.47,0.006-0.99,0.006-1.56V4.445
			c0-0.475-0.003-0.907-0.006-1.296c-0.006-0.389-0.013-0.746-0.022-1.068c-0.01-0.247-0.124-0.404-0.344-0.47l-1.919-0.556
			l-0.043-0.727c1.336,0.038,2.706,0.057,4.109,0.057c0.296,0,0.663-0.007,1.103-0.021c0.439-0.014,0.974-0.031,1.604-0.05
			c0.573-0.019,1.052-0.033,1.44-0.043c0.385-0.009,0.689-0.014,0.908-0.014c2.453,0,4.292,0.408,5.519,1.225
			s1.841,2.009,1.841,3.576c0,1.415-0.375,2.557-1.125,3.426c-0.749,0.869-1.849,1.536-3.3,2.002
			c0.802,1.178,1.419,2.132,1.855,2.863c0.433,0.731,0.87,1.451,1.309,2.158c0.439,0.708,0.838,1.332,1.195,1.873
			c0.36,0.541,0.695,0.969,1.01,1.282c0.172,0.142,0.336,0.266,0.495,0.37c0.156,0.104,0.321,0.195,0.493,0.271
			c0.172,0.076,0.355,0.14,0.55,0.192c0.196,0.052,0.414,0.102,0.652,0.15l0.057,0.727c-0.935,0.133-2.005,0.199-3.207,0.199
			c-0.955,0-1.623-0.062-2.005-0.185c-0.382-0.123-0.721-0.299-1.017-0.527c-0.439-0.342-0.843-0.788-1.211-1.339
			c-0.368-0.551-0.756-1.173-1.166-1.866c-0.41-0.693-0.834-1.429-1.268-2.208s-0.889-1.548-1.367-2.308
			c-0.143-0.218-0.261-0.399-0.352-0.541c-0.091-0.142-0.181-0.249-0.27-0.321c-0.092-0.071-0.188-0.123-0.286-0.157
			c-0.102-0.033-0.228-0.055-0.38-0.064l-0.601-0.014V15.799z M109.601,9.801c0.506,0.028,0.964,0.043,1.375,0.043
			c1.355,0,2.348-0.34,2.978-1.019s0.945-1.74,0.945-3.184c0-1.396-0.304-2.415-0.908-3.056c-0.608-0.641-1.55-0.962-2.829-0.962
			c-0.22,0-0.457,0.009-0.71,0.028s-0.536,0.047-0.851,0.085V9.801z"/>
		<path d="M133.75,13.947l-1.017,2.664c-0.2,0.522-0.356,0.943-0.466,1.261c-0.11,0.318-0.164,0.563-0.164,0.734
			c0,0.161,0.043,0.285,0.129,0.37s0.22,0.152,0.401,0.199l1.375,0.399l0.043,0.741c-1.384-0.028-2.51-0.043-3.379-0.043
			c-0.907,0-1.943,0.014-3.107,0.043l-0.072-0.712l1.532-0.456c0.363-0.104,0.63-0.278,0.802-0.52
			c0.172-0.242,0.363-0.61,0.573-1.104l7.131-17.28l1.546-0.228l6.171,17.323c0.239,0.665,0.455,1.114,0.651,1.346
			c0.196,0.233,0.476,0.401,0.838,0.506l1.403,0.413l0.043,0.712c-1.289-0.028-2.587-0.043-3.895-0.043
			c-1.728,0-3.413,0.014-5.054,0.043l-0.072-0.712l1.418-0.413c0.191-0.057,0.329-0.128,0.415-0.214
			c0.086-0.085,0.129-0.214,0.129-0.385c0-0.19-0.048-0.439-0.143-0.748c-0.095-0.309-0.234-0.715-0.415-1.218l-0.945-2.678H133.75z
			 M136.843,5.77c-0.172,0.494-0.358,1.007-0.558,1.539l-1.962,5.157h4.782l-1.761-5.143C137.163,6.781,136.996,6.264,136.843,5.77z
			"/>
	</g>
	<g>
		<path d="M161.673,4.388v11.269c0,1.045,0.01,2.08,0.029,3.106h5.599l1.962-4.046l0.873-0.128l-0.358,5.627l-0.1,0.1
			c-2.358-0.028-4.663-0.043-6.916-0.043h-3.551c-1.422,0-2.74,0.014-3.952,0.043l-0.072-0.712l1.775-0.527
			c0.239-0.066,0.368-0.214,0.387-0.442c0.01-0.38,0.016-0.805,0.022-1.275c0.003-0.47,0.006-0.99,0.006-1.56V4.445
			c0-0.475-0.003-0.907-0.006-1.296c-0.006-0.389-0.013-0.746-0.022-1.068c-0.01-0.247-0.124-0.404-0.344-0.47l-1.775-0.556
			l-0.043-0.727c1.231,0.038,2.654,0.057,4.267,0.057c1.661,0,3.102-0.019,4.324-0.057l0.072,0.727l-1.775,0.527
			c-0.229,0.057-0.353,0.199-0.372,0.427c-0.01,0.342-0.018,0.829-0.022,1.46S161.673,4.407,161.673,4.388z"/>
	</g>
	<g>
		<path d="M10.297,41.344v4.832c0,1.152,0.01,2.093,0.029,2.826c0.01,0.234,0.138,0.391,0.383,0.469l2.163,0.614l0.045,0.733
			c-1.521-0.03-3.11-0.044-4.768-0.044c-1.698,0-3.228,0.014-4.591,0.044l-0.073-0.733l1.971-0.541
			c0.255-0.078,0.388-0.23,0.398-0.454c0.02-0.79,0.029-1.762,0.029-2.913v-11.67c0-0.488-0.002-0.932-0.007-1.332
			c-0.006-0.4-0.013-0.766-0.022-1.098c-0.01-0.254-0.127-0.416-0.353-0.484l-1.972-0.571l-0.044-0.747
			c1.373,0.039,2.678,0.059,3.914,0.059h3.724c2.384,0,4.856-0.02,7.417-0.059l0.103,0.117l-0.912,4.875l-0.795,0.117l-0.942-3.558
			h-5.695v8.112h0.839c0.863,0,1.78-0.009,2.752-0.029c0.265-0.009,0.432-0.142,0.5-0.395l0.53-2.006l0.971-0.044
			c-0.029,1.415-0.044,2.474-0.044,3.177c0,0.683,0.014,1.728,0.044,3.133l-0.971,0.088l-0.544-2.079
			c-0.069-0.254-0.221-0.39-0.457-0.41c-0.991-0.02-1.923-0.029-2.796-0.029H10.297z"/>
		<path d="M33.293,34.447v11.582c0,1.074,0.01,2.138,0.029,3.193h5.754l2.016-4.159l0.897-0.132l-0.368,5.784l-0.103,0.103
			c-2.423-0.03-4.792-0.044-7.108-0.044h-3.65c-1.462,0-2.816,0.014-4.062,0.044l-0.074-0.733l1.825-0.541
			c0.246-0.068,0.378-0.22,0.398-0.454c0.01-0.39,0.017-0.827,0.022-1.31c0.005-0.484,0.007-1.018,0.007-1.603v-11.67
			c0-0.488-0.002-0.932-0.007-1.332c-0.006-0.4-0.013-0.766-0.022-1.098c-0.01-0.254-0.127-0.416-0.353-0.484l-1.825-0.571
			l-0.045-0.747c1.266,0.039,2.728,0.059,4.386,0.059c1.707,0,3.188-0.02,4.443-0.059l0.074,0.747l-1.825,0.541
			c-0.235,0.059-0.363,0.205-0.383,0.439c-0.01,0.351-0.018,0.852-0.022,1.501C33.295,34.152,33.293,34.467,33.293,34.447z"/>
	</g>
	<g>
		<path d="M71.78,40.084c0,3.377-1.001,6.093-3.002,8.148c-2.001,2.056-4.788,3.082-8.359,3.082c-3.414,0-6.054-0.95-7.918-2.848
			c-1.864-1.898-2.795-4.468-2.795-7.709c0-3.377,1.005-6.049,3.016-8.017c2.011-1.967,4.793-2.95,8.344-2.95
			c3.414,0,6.053,0.92,7.917,2.76C70.848,34.392,71.78,36.902,71.78,40.084z M54.65,40.275c0,3.123,0.53,5.512,1.589,7.167
			c1.06,1.655,2.614,2.483,4.665,2.483c2.021,0,3.514-0.753,4.481-2.256c0.966-1.503,1.45-3.865,1.45-7.087
			c0-3.026-0.511-5.352-1.53-6.977c-1.021-1.626-2.6-2.438-4.739-2.438c-2.07,0-3.573,0.754-4.51,2.263
			C55.118,34.938,54.65,37.219,54.65,40.275z"/>
		<path d="M85.67,46.175c0,0.586,0.002,1.11,0.006,1.574c0.006,0.464,0.013,0.886,0.022,1.266c0.01,0.313,0.123,0.503,0.339,0.571
			l1.53,0.497l0.045,0.733c-1.09-0.03-2.439-0.044-4.047-0.044c-1.717,0-3.247,0.014-4.591,0.044l-0.073-0.733l1.971-0.541
			c0.246-0.068,0.378-0.22,0.398-0.454c0.01-0.39,0.017-0.827,0.022-1.31c0.005-0.484,0.007-1.018,0.007-1.603v-11.67
			c0-0.488-0.002-0.932-0.007-1.332c-0.006-0.4-0.013-0.766-0.022-1.098c-0.01-0.254-0.127-0.416-0.353-0.484l-1.972-0.571
			l-0.044-0.747c1.373,0.039,2.781,0.059,4.223,0.059c0.304,0,0.682-0.007,1.134-0.022c0.451-0.014,1.001-0.032,1.648-0.051
			c0.589-0.02,1.082-0.035,1.478-0.044c0.398-0.009,0.71-0.014,0.935-0.014c2.522,0,4.412,0.419,5.673,1.258
			c1.26,0.84,1.89,2.065,1.89,3.675c0,1.455-0.385,2.628-1.155,3.521c-0.77,0.894-1.901,1.579-3.392,2.057
			c0.824,1.211,1.459,2.192,1.906,2.943c0.445,0.752,0.896,1.491,1.346,2.218c0.452,0.727,0.861,1.369,1.23,1.925
			c0.368,0.557,0.713,0.996,1.037,1.319c0.177,0.146,0.345,0.274,0.508,0.38c0.162,0.108,0.331,0.201,0.508,0.279
			c0.177,0.078,0.366,0.144,0.566,0.198c0.2,0.054,0.425,0.104,0.67,0.154l0.059,0.747c-0.961,0.136-2.06,0.204-3.296,0.204
			c-0.982,0-1.667-0.063-2.06-0.19c-0.393-0.127-0.741-0.307-1.045-0.541c-0.45-0.351-0.865-0.81-1.243-1.377
			c-0.379-0.566-0.778-1.205-1.2-1.918c-0.422-0.712-0.856-1.469-1.303-2.269c-0.447-0.801-0.915-1.592-1.405-2.373
			c-0.148-0.224-0.267-0.41-0.361-0.556c-0.094-0.147-0.186-0.256-0.28-0.33c-0.092-0.073-0.191-0.127-0.294-0.161
			c-0.102-0.034-0.232-0.056-0.39-0.066l-0.617-0.014V46.175z M85.67,40.011c0.52,0.03,0.991,0.044,1.413,0.044
			c1.392,0,2.413-0.349,3.061-1.047c0.648-0.697,0.97-1.789,0.97-3.273c0-1.434-0.312-2.481-0.934-3.14
			c-0.624-0.658-1.593-0.988-2.907-0.988c-0.226,0-0.469,0.009-0.729,0.028c-0.259,0.02-0.552,0.049-0.875,0.089V40.011z"/>
		<path d="M112.993,46.175c0,0.586,0.002,1.118,0.006,1.596c0.005,0.478,0.013,0.907,0.022,1.288c0.01,0.253,0.177,0.424,0.5,0.513
			l1.81,0.511l0.045,0.733c-1.363-0.03-2.875-0.044-4.533-0.044c-1.717,0-3.247,0.014-4.591,0.044l-0.073-0.733l1.971-0.541
			c0.245-0.068,0.379-0.22,0.398-0.454c0.01-0.39,0.018-0.827,0.022-1.31c0.005-0.484,0.006-1.018,0.006-1.603v-11.67
			c0-0.488-0.002-0.932-0.006-1.332c-0.005-0.4-0.013-0.766-0.022-1.098c-0.01-0.254-0.127-0.416-0.353-0.484l-1.973-0.571
			l-0.043-0.747c1.363,0.039,2.875,0.059,4.533,0.059c1.707,0,3.238-0.02,4.591-0.059l0.073,0.747l-1.973,0.541
			c-0.235,0.059-0.363,0.205-0.382,0.439c-0.01,0.351-0.018,0.73-0.022,1.135c-0.005,0.405-0.006,0.841-0.006,1.31V46.175z"/>
		<path d="M129.598,50.773c-1.266,0-2.571,0.014-3.915,0.044l-0.073-0.733l1.971-0.541c0.256-0.078,0.388-0.23,0.398-0.454
			c0.01-0.39,0.018-0.827,0.022-1.31c0.005-0.484,0.006-1.018,0.006-1.603v-11.67c0-0.488-0.002-0.932-0.006-1.332
			c-0.005-0.4-0.013-0.766-0.022-1.098c-0.01-0.254-0.127-0.416-0.353-0.484l-1.973-0.571l-0.043-0.747
			c1.373,0.039,2.687,0.059,3.944,0.059c1.06,0,2.075-0.025,3.045-0.073c0.972-0.049,1.978-0.074,3.018-0.074
			c3.659,0,6.411,0.779,8.255,2.336c1.844,1.557,2.767,3.868,2.767,6.933c0,3.611-1.023,6.415-3.069,8.411
			c-2.044,1.996-4.922,2.995-8.631,2.995c-1.02,0-1.927-0.016-2.722-0.044C131.421,50.787,130.549,50.773,129.598,50.773z
			 M132.423,49.279c0.471,0.089,0.931,0.146,1.383,0.169s0.907,0.036,1.368,0.036c2.129,0,3.748-0.747,4.857-2.24
			c1.109-1.494,1.663-3.768,1.663-6.824c0-2.977-0.53-5.185-1.589-6.625c-1.06-1.44-2.727-2.16-5.004-2.16
			c-0.843,0-1.736,0.04-2.678,0.117V49.279z"/>
	</g>
	<g>
		<path d="M158.715,44.272l-1.045,2.738c-0.205,0.537-0.366,0.969-0.477,1.296c-0.113,0.327-0.17,0.579-0.17,0.754
			c0,0.165,0.045,0.293,0.132,0.38c0.089,0.089,0.226,0.157,0.414,0.206l1.413,0.41l0.043,0.761
			c-1.422-0.03-2.581-0.044-3.473-0.044c-0.932,0-1.997,0.014-3.193,0.044l-0.073-0.733l1.573-0.469
			c0.374-0.106,0.649-0.285,0.824-0.534c0.178-0.249,0.374-0.627,0.589-1.134l7.329-17.761l1.589-0.234l6.343,17.804
			c0.245,0.683,0.468,1.144,0.67,1.383c0.2,0.24,0.487,0.412,0.861,0.52l1.441,0.424l0.045,0.733
			c-1.325-0.03-2.658-0.044-4.003-0.044c-1.775,0-3.508,0.014-5.194,0.044l-0.073-0.733l1.456-0.424
			c0.197-0.059,0.339-0.131,0.428-0.22c0.088-0.087,0.132-0.218,0.132-0.395c0-0.195-0.049-0.451-0.148-0.768
			c-0.097-0.317-0.24-0.734-0.426-1.252l-0.97-2.753H158.715z M161.894,35.868c-0.177,0.507-0.368,1.034-0.574,1.581l-2.016,5.3
			h4.914l-1.809-5.285C162.223,36.907,162.051,36.375,161.894,35.868z"/>
	</g>
	<g>
		<path style="fill:#F79421;" d="M4.731,61.981h2.616c1.675,0,3.413-0.014,5.212-0.041l0.072,0.082l-0.641,3.425l-0.558,0.082
			l-0.662-2.499H6.768v5.463h0.558c0.6,0,1.244-0.006,1.934-0.019c0.179-0.008,0.297-0.1,0.352-0.279l0.372-1.409l0.683-0.032
			c-0.021,0.994-0.031,1.738-0.031,2.232c0,0.481,0.01,1.216,0.031,2.203l-0.683,0.051l-0.383-1.45
			c-0.055-0.187-0.162-0.282-0.321-0.288c-0.703-0.014-1.358-0.022-1.965-0.022H6.768v3.53c0,0.755,0.007,1.502,0.021,2.243h4.136
			l1.303-2.705l0.631-0.093l-0.248,3.848l-0.072,0.073c-1.717-0.022-3.389-0.032-5.015-0.032h-2.74
			c-0.889,0-1.807,0.009-2.751,0.032L1.98,75.86l1.386-0.38c0.173-0.047,0.266-0.155,0.279-0.32c0.007-0.274,0.012-0.581,0.016-0.92
			c0.003-0.34,0.005-0.715,0.005-1.127v-8.201c0-0.342-0.002-0.654-0.005-0.935c-0.004-0.282-0.009-0.538-0.016-0.771
			c-0.007-0.179-0.09-0.293-0.248-0.34l-1.386-0.4L1.98,61.94C2.945,61.967,3.862,61.981,4.731,61.981z"/>
		<path style="fill:#F79421;" d="M32.917,76.376c-0.959-0.022-2.024-0.032-3.195-0.032c-1.096,0-2.306,0.009-3.63,0.032
			l-0.072-0.516l0.92-0.247c0.145-0.041,0.248-0.093,0.31-0.158c0.062-0.065,0.093-0.146,0.093-0.242
			c0-0.165-0.062-0.358-0.186-0.581c-0.124-0.223-0.259-0.451-0.403-0.684l-2.244-3.53l-2.037,3.159
			c-0.214,0.321-0.403,0.624-0.569,0.905c-0.165,0.28-0.248,0.518-0.248,0.709c0,0.097,0.024,0.177,0.072,0.242
			c0.049,0.065,0.145,0.119,0.29,0.16l0.889,0.247l0.031,0.535c-0.772-0.022-1.603-0.032-2.492-0.032
			c-0.799,0-1.61,0.009-2.43,0.032l-0.052-0.516l1.189-0.329c0.255-0.082,0.476-0.203,0.662-0.364
			c0.186-0.161,0.386-0.407,0.6-0.736l3.423-5.062L20.3,63.783c-0.228-0.358-0.422-0.606-0.584-0.747
			c-0.162-0.141-0.354-0.237-0.574-0.293l-1.075-0.277l-0.041-0.526c0.972,0.027,2.092,0.041,3.361,0.041
			c1.096,0,2.254-0.014,3.475-0.041l0.062,0.526l-0.91,0.247c-0.145,0.033-0.248,0.084-0.31,0.149
			c-0.062,0.065-0.093,0.149-0.093,0.252c0,0.165,0.064,0.358,0.191,0.581c0.128,0.223,0.264,0.451,0.409,0.684l1.768,2.799
			l1.593-2.438c0.22-0.315,0.414-0.62,0.579-0.915c0.165-0.296,0.248-0.526,0.248-0.69c0-0.185-0.138-0.32-0.414-0.402l-0.91-0.247
			l-0.031-0.545c0.765,0.027,1.589,0.041,2.472,0.041c0.855,0,1.662-0.014,2.42-0.041l0.062,0.526l-1.158,0.318
			c-0.269,0.082-0.484,0.206-0.647,0.37c-0.161,0.165-0.38,0.45-0.656,0.853l-2.896,4.22l3.93,6.183
			c0.282,0.446,0.498,0.736,0.647,0.869c0.148,0.135,0.349,0.233,0.605,0.293l1.065,0.288L32.917,76.376z"/>
		<path style="fill:#F79421;" d="M42.509,73.114c0,0.412,0.002,0.78,0.005,1.106c0.004,0.326,0.009,0.619,0.016,0.88
			c0.007,0.157,0.096,0.266,0.269,0.329l1.52,0.431l0.031,0.516c-1.068-0.022-2.185-0.032-3.351-0.032
			c-1.207,0-2.282,0.009-3.226,0.032l-0.052-0.516l1.386-0.38c0.179-0.055,0.272-0.161,0.279-0.32
			c0.007-0.274,0.012-0.581,0.016-0.92c0.003-0.34,0.005-0.715,0.005-1.127v-8.201c0-0.342-0.002-0.654-0.005-0.935
			c-0.004-0.282-0.009-0.538-0.016-0.771c-0.007-0.179-0.09-0.293-0.248-0.34l-1.386-0.4l-0.031-0.526
			c0.965,0.027,1.92,0.041,2.864,0.041c0.648,0,1.278-0.014,1.887-0.041c0.611-0.027,1.167-0.041,1.67-0.041
			c1.861,0,3.271,0.321,4.23,0.962c0.959,0.641,1.437,1.592,1.437,2.856c0,1.488-0.498,2.645-1.494,3.471
			c-0.997,0.826-2.402,1.239-4.214,1.239c-0.489,0-1.021-0.036-1.593-0.112V73.114z M42.509,69.328
			c0.393,0.076,0.783,0.112,1.169,0.112c0.903,0,1.591-0.275,2.063-0.828c0.473-0.552,0.709-1.387,0.709-2.506
			c0-1.083-0.224-1.89-0.672-2.422s-1.155-0.798-2.12-0.798c-0.379,0-0.762,0.027-1.148,0.082V69.328z"/>
	</g>
	<g>
		<path style="fill:#F79421;" d="M59.887,73.114c0,0.412,0.002,0.78,0.006,1.106c0.003,0.326,0.008,0.622,0.015,0.89
			c0.007,0.22,0.086,0.353,0.238,0.402l1.075,0.348l0.031,0.516c-0.765-0.022-1.713-0.032-2.844-0.032
			c-1.207,0-2.282,0.009-3.226,0.032L55.13,75.86l1.386-0.38c0.173-0.047,0.266-0.155,0.279-0.32
			c0.007-0.274,0.012-0.581,0.016-0.92c0.003-0.34,0.005-0.715,0.005-1.127v-8.201c0-0.342-0.002-0.654-0.005-0.935
			c-0.004-0.282-0.009-0.538-0.016-0.771c-0.007-0.179-0.09-0.293-0.248-0.34l-1.386-0.4L55.13,61.94
			c0.965,0.027,1.954,0.041,2.968,0.041c0.214,0,0.479-0.005,0.796-0.016c0.317-0.009,0.703-0.022,1.158-0.035
			c0.414-0.014,0.76-0.025,1.04-0.032c0.278-0.006,0.498-0.009,0.656-0.009c1.772,0,3.101,0.294,3.986,0.883
			c0.886,0.59,1.329,1.452,1.329,2.583c0,1.023-0.27,1.847-0.812,2.474c-0.541,0.628-1.336,1.11-2.383,1.445
			c0.579,0.852,1.025,1.54,1.34,2.069c0.313,0.529,0.628,1.048,0.946,1.559s0.605,0.962,0.863,1.352
			c0.259,0.393,0.502,0.7,0.729,0.928c0.124,0.101,0.243,0.192,0.357,0.266c0.113,0.076,0.232,0.141,0.356,0.196
			c0.124,0.055,0.257,0.101,0.398,0.139c0.142,0.038,0.298,0.073,0.471,0.108l0.041,0.526c-0.675,0.095-1.448,0.142-2.316,0.142
			c-0.69,0-1.172-0.044-1.448-0.133c-0.276-0.089-0.52-0.215-0.734-0.38c-0.317-0.247-0.609-0.57-0.874-0.969
			c-0.265-0.397-0.546-0.847-0.842-1.347c-0.297-0.5-0.601-1.032-0.916-1.594c-0.313-0.564-0.643-1.119-0.987-1.668
			c-0.103-0.157-0.188-0.288-0.254-0.389c-0.065-0.104-0.13-0.18-0.196-0.233c-0.066-0.051-0.135-0.089-0.207-0.112
			c-0.073-0.024-0.164-0.04-0.274-0.047l-0.434-0.009V73.114z M59.887,68.781c0.365,0.022,0.696,0.032,0.993,0.032
			c0.979,0,1.696-0.245,2.151-0.736c0.455-0.491,0.683-1.257,0.683-2.3c0-1.007-0.219-1.743-0.656-2.207
			c-0.438-0.462-1.119-0.693-2.043-0.693c-0.158,0-0.329,0.006-0.512,0.019c-0.182,0.014-0.387,0.035-0.615,0.063V68.781z"/>
		<path style="fill:#F79421;" d="M77.049,61.981h2.616c1.675,0,3.413-0.014,5.212-0.041l0.072,0.082l-0.641,3.425L83.75,65.53
			l-0.662-2.499h-4.002v5.463h0.558c0.6,0,1.244-0.006,1.934-0.019c0.179-0.008,0.297-0.1,0.352-0.279l0.372-1.409l0.683-0.032
			c-0.021,0.994-0.031,1.738-0.031,2.232c0,0.481,0.01,1.216,0.031,2.203l-0.683,0.051l-0.383-1.45
			c-0.055-0.187-0.162-0.282-0.321-0.288c-0.703-0.014-1.358-0.022-1.965-0.022h-0.548v3.53c0,0.755,0.007,1.502,0.021,2.243h4.136
			l1.303-2.705l0.631-0.093l-0.248,3.848l-0.072,0.073c-1.717-0.022-3.389-0.032-5.015-0.032h-2.74
			c-0.889,0-1.807,0.009-2.751,0.032l-0.052-0.516l1.386-0.38c0.173-0.047,0.266-0.155,0.279-0.32
			c0.007-0.274,0.012-0.581,0.016-0.92c0.003-0.34,0.005-0.715,0.005-1.127v-8.201c0-0.342-0.002-0.654-0.005-0.935
			c-0.004-0.282-0.009-0.538-0.016-0.771c-0.007-0.179-0.09-0.293-0.248-0.34l-1.386-0.4l-0.031-0.526
			C75.263,61.967,76.18,61.981,77.049,61.981z"/>
		<path style="fill:#F79421;" d="M98.368,62.918c-0.441-0.173-0.92-0.258-1.438-0.258c-0.73,0-1.349,0.212-1.855,0.638
			c-0.508,0.426-0.76,0.973-0.76,1.646c0,0.405,0.083,0.75,0.248,1.038s0.387,0.546,0.662,0.772
			c0.275,0.226,0.592,0.429,0.947,0.608c0.355,0.177,0.722,0.356,1.101,0.535c0.42,0.198,0.845,0.416,1.271,0.652
			c0.428,0.237,0.811,0.518,1.149,0.844c0.337,0.326,0.613,0.715,0.823,1.168c0.21,0.453,0.315,1.002,0.315,1.646
			c0,1.393-0.527,2.487-1.583,3.281c-1.053,0.796-2.447,1.194-4.178,1.194c-1.247,0-2.477-0.195-3.691-0.586l-0.062-0.092
			l0.549-3.704l0.64-0.104l0.776,3.15c0.496,0.225,1.048,0.339,1.655,0.339c0.875,0,1.58-0.222,2.114-0.663
			c0.535-0.443,0.802-1.034,0.802-1.774c0-0.419-0.083-0.774-0.248-1.065s-0.39-0.552-0.673-0.782
			c-0.282-0.23-0.603-0.434-0.961-0.613c-0.358-0.179-0.73-0.356-1.117-0.535c-0.42-0.206-0.842-0.421-1.262-0.649
			c-0.42-0.225-0.797-0.5-1.128-0.823c-0.331-0.321-0.598-0.708-0.805-1.157c-0.207-0.45-0.312-0.992-0.312-1.63
			c0-1.311,0.504-2.352,1.511-3.128c1.005-0.776,2.312-1.163,3.918-1.163c1.02,0,2.181,0.158,3.486,0.475l0.06,0.092l-0.63,3.313
			l-0.57,0.093L98.368,62.918z"/>
		<path style="fill:#F79421;" d="M113.773,62.918c-0.441-0.173-0.92-0.258-1.438-0.258c-0.73,0-1.349,0.212-1.855,0.638
			c-0.508,0.426-0.76,0.973-0.76,1.646c0,0.405,0.083,0.75,0.248,1.038s0.387,0.546,0.662,0.772
			c0.275,0.226,0.592,0.429,0.947,0.608c0.355,0.177,0.722,0.356,1.101,0.535c0.42,0.198,0.845,0.416,1.271,0.652
			c0.428,0.237,0.811,0.518,1.149,0.844c0.337,0.326,0.613,0.715,0.823,1.168c0.21,0.453,0.315,1.002,0.315,1.646
			c0,1.393-0.527,2.487-1.583,3.281c-1.053,0.796-2.447,1.194-4.178,1.194c-1.247,0-2.477-0.195-3.691-0.586l-0.062-0.092
			l0.549-3.704l0.64-0.104l0.776,3.15c0.496,0.225,1.048,0.339,1.655,0.339c0.875,0,1.58-0.222,2.114-0.663
			c0.535-0.443,0.802-1.034,0.802-1.774c0-0.419-0.083-0.774-0.248-1.065s-0.39-0.552-0.673-0.782
			c-0.282-0.23-0.603-0.434-0.961-0.613c-0.358-0.179-0.73-0.356-1.117-0.535c-0.42-0.206-0.842-0.421-1.262-0.649
			c-0.42-0.225-0.797-0.5-1.128-0.823c-0.331-0.321-0.598-0.708-0.805-1.157c-0.207-0.45-0.312-0.992-0.312-1.63
			c0-1.311,0.504-2.352,1.511-3.128c1.005-0.776,2.312-1.163,3.918-1.163c1.02,0,2.181,0.158,3.486,0.475l0.06,0.092l-0.63,3.313
			l-0.57,0.093L113.773,62.918z"/>
		<path style="fill:#F79421;" d="M135.928,70.757c0.118,0.37,0.212,0.738,0.28,1.102c0.11-0.377,0.224-0.734,0.34-1.07l2.151-6.164
			c0.138-0.404,0.237-0.714,0.296-0.931c0.059-0.215,0.087-0.389,0.087-0.519c0-0.117-0.033-0.206-0.099-0.268
			c-0.065-0.062-0.164-0.109-0.294-0.144l-0.993-0.279l-0.032-0.545c1.001,0.027,1.814,0.041,2.441,0.041
			c0.655,0,1.403-0.014,2.245-0.041l0.053,0.526l-1.107,0.318c-0.262,0.082-0.46,0.209-0.595,0.381
			c-0.134,0.171-0.267,0.438-0.398,0.801l-4.458,12.378l-1.126,0.092l-2.616-8.158c-0.138-0.432-0.28-0.899-0.425-1.399
			c-0.165,0.494-0.325,0.956-0.476,1.39l-2.854,8.076l-1.117,0.092l-4.033-12.347c-0.159-0.472-0.312-0.793-0.46-0.961
			c-0.148-0.168-0.353-0.293-0.616-0.375l-1.004-0.288l-0.03-0.526c0.931,0.027,1.868,0.041,2.813,0.041
			c1.241,0,2.455-0.014,3.64-0.041l0.062,0.526l-1.025,0.288c-0.137,0.041-0.237,0.092-0.299,0.154
			c-0.062,0.062-0.092,0.154-0.092,0.277c0,0.138,0.025,0.317,0.076,0.535c0.053,0.22,0.137,0.519,0.255,0.896l1.922,6.142
			c0.111,0.37,0.204,0.738,0.28,1.102c0.11-0.377,0.221-0.734,0.331-1.07l3.061-8.858l1.044-0.093L135.928,70.757z"/>
	</g>
	<g>
		<path style="fill:#F79421;" d="M148.474,71.776l-0.735,1.925c-0.143,0.377-0.256,0.681-0.336,0.91
			c-0.08,0.23-0.119,0.407-0.119,0.53c0,0.116,0.032,0.206,0.094,0.266c0.062,0.063,0.159,0.111,0.29,0.146l0.993,0.288l0.03,0.535
			c-0.999-0.022-1.812-0.032-2.441-0.032c-0.654,0-1.402,0.009-2.243,0.032l-0.051-0.516l1.106-0.329
			c0.263-0.074,0.455-0.199,0.579-0.375c0.124-0.174,0.263-0.44,0.414-0.796l5.15-12.481l1.117-0.165l4.458,12.511
			c0.172,0.48,0.328,0.804,0.469,0.972c0.142,0.168,0.344,0.29,0.606,0.366l1.012,0.298l0.032,0.516
			c-0.931-0.022-1.868-0.032-2.813-0.032c-1.247,0-2.464,0.009-3.65,0.032l-0.053-0.516l1.023-0.298
			c0.138-0.041,0.239-0.092,0.301-0.155c0.062-0.06,0.094-0.154,0.094-0.277c0-0.138-0.035-0.317-0.105-0.54
			c-0.068-0.223-0.169-0.516-0.299-0.88l-0.683-1.934H148.474z M150.708,65.87c-0.124,0.356-0.258,0.727-0.404,1.111l-1.416,3.725
			h3.454l-1.271-3.713C150.939,66.6,150.818,66.227,150.708,65.87z"/>
		<path style="fill:#F79421;" d="M169.106,68.557l1.985-3.932c0.186-0.342,0.334-0.633,0.445-0.874
			c0.11-0.241,0.165-0.435,0.165-0.586c0-0.206-0.156-0.351-0.466-0.434l-0.931-0.247l-0.032-0.545
			c0.767,0.027,1.569,0.041,2.41,0.041c0.765,0,1.519-0.014,2.264-0.041L175,62.466l-1.096,0.318
			c-0.248,0.082-0.439,0.204-0.574,0.366c-0.134,0.161-0.27,0.364-0.409,0.611l-3.268,6.02v3.334c0,0.412,0.003,0.785,0.006,1.122
			c0.003,0.336,0.008,0.636,0.016,0.905c0.006,0.177,0.127,0.298,0.361,0.359l1.158,0.359l0.03,0.516
			c-0.888-0.022-1.915-0.032-3.08-0.032c-1.2,0-2.242,0.009-3.125,0.032l-0.051-0.516l1.282-0.38c0.172-0.047,0.266-0.155,0.28-0.32
			c0.006-0.274,0.013-0.581,0.019-0.92c0.008-0.34,0.011-0.715,0.011-1.127v-3.087l-3.362-5.988
			c-0.255-0.418-0.463-0.719-0.625-0.901c-0.162-0.182-0.377-0.313-0.646-0.396l-0.993-0.277l-0.041-0.526
			c0.683,0.027,1.651,0.041,2.907,0.041c1.378,0,2.684-0.014,3.918-0.041l0.053,0.526l-1.056,0.256
			c-0.158,0.035-0.275,0.084-0.35,0.149c-0.076,0.065-0.115,0.149-0.115,0.253c0,0.142,0.048,0.318,0.145,0.524
			s0.231,0.45,0.403,0.73L169.106,68.557z"/>
	</g>
	<g>
		<path d="M4.81,96.699l-0.782,2.048c-0.154,0.402-0.274,0.724-0.358,0.968c-0.084,0.246-0.127,0.433-0.127,0.565
			c0,0.124,0.033,0.219,0.099,0.285s0.169,0.117,0.308,0.153l1.057,0.307l0.033,0.569c-1.064-0.022-1.93-0.033-2.598-0.033
			c-0.697,0-1.493,0.011-2.389,0.033L0,101.047l1.178-0.35c0.279-0.08,0.484-0.214,0.616-0.399c0.132-0.188,0.279-0.469,0.44-0.85
			l5.482-13.285l1.189-0.175l4.744,13.317c0.183,0.512,0.351,0.856,0.501,1.036c0.15,0.178,0.365,0.308,0.644,0.388l1.079,0.318
			l0.033,0.548c-0.991-0.022-1.988-0.033-2.994-0.033c-1.328,0-2.624,0.011-3.886,0.033l-0.055-0.548l1.09-0.318
			c0.147-0.044,0.253-0.099,0.319-0.164c0.066-0.066,0.099-0.164,0.099-0.296c0-0.146-0.037-0.338-0.11-0.576
			c-0.073-0.236-0.18-0.549-0.319-0.936l-0.726-2.059H4.81z M7.188,90.413c-0.132,0.38-0.275,0.774-0.429,1.183L5.251,95.56h3.677
			l-1.354-3.954C7.434,91.191,7.305,90.793,7.188,90.413z"/>
		<path d="M20.69,86.229c1.02,0.03,2.15,0.044,3.39,0.044c1.277,0,2.407-0.014,3.39-0.044l0.055,0.559l-1.431,0.405
			c-0.176,0.044-0.271,0.153-0.286,0.329c-0.007,0.263-0.013,0.546-0.017,0.848c-0.004,0.304-0.006,0.631-0.006,0.981v6.034
			c0,1.993,0.301,3.372,0.903,4.134c0.601,0.764,1.578,1.145,2.928,1.145c1.328,0,2.324-0.404,2.989-1.211
			c0.664-0.806,0.996-2.115,0.996-3.925v-6.177c0-0.35-0.004-0.677-0.011-0.981c-0.007-0.302-0.015-0.585-0.022-0.848
			c-0.007-0.167-0.103-0.277-0.286-0.329l-1.365-0.383l-0.033-0.58c0.976,0.03,1.82,0.044,2.532,0.044
			c0.66,0,1.49-0.014,2.488-0.044l0.055,0.559l-1.497,0.427c-0.176,0.052-0.268,0.172-0.275,0.361
			c-0.007,0.249-0.013,0.523-0.017,0.821c-0.004,0.299-0.006,0.632-0.006,0.997v5.564c0,2.511-0.519,4.313-1.558,5.406
			c-1.039,1.09-2.548,1.637-4.53,1.637c-2.253,0-3.915-0.519-4.986-1.561c-1.072-1.039-1.607-2.707-1.607-4.999v-6.045
			c0-0.365-0.002-0.698-0.006-0.997s-0.009-0.573-0.017-0.821c-0.007-0.189-0.095-0.31-0.264-0.361l-1.475-0.427L20.69,86.229z"/>
	</g>
	<g>
		<path d="M49.405,101.557c-1.307,0-2.554,0.011-3.742,0.033l-0.056-0.554l1.782-0.488c0.185-0.059,0.282-0.177,0.29-0.355
			c0.015-0.554,0.022-1.266,0.022-2.138V87.23h-3.207l-1.025,2.947l-0.624,0.1l-0.29-4.144l0.078-0.089
			c1.826,0.03,3.575,0.044,5.245,0.044h3.107c1.67,0,3.43-0.014,5.279-0.044l0.067,0.089l-0.735,4.055l-0.624,0.1l-0.724-3.058
			h-3.218v10.825c0,0.872,0.007,1.584,0.022,2.138c0.007,0.177,0.107,0.296,0.301,0.355l1.748,0.488l0.033,0.554
			C51.904,101.568,50.659,101.557,49.405,101.557z"/>
	</g>
	<g>
		<path d="M67.278,94.06v4.063c0,0.862,0.007,1.58,0.022,2.158c0.007,0.205,0.103,0.332,0.286,0.383l1.277,0.383l0.033,0.548
			c-0.91-0.022-1.985-0.033-3.225-0.033c-1.27,0-2.415,0.011-3.434,0.033l-0.055-0.548l1.475-0.405
			c0.191-0.058,0.29-0.172,0.297-0.34c0.015-0.591,0.022-1.317,0.022-2.179v-8.729c0-0.731-0.007-1.336-0.022-1.818
			c-0.007-0.189-0.095-0.31-0.264-0.361l-1.475-0.427l-0.033-0.559c1.02,0.03,2.15,0.044,3.39,0.044
			c1.277,0,2.363-0.014,3.258-0.044l0.066,0.559l-1.31,0.372c-0.183,0.052-0.279,0.164-0.286,0.34
			c-0.015,0.526-0.022,1.142-0.022,1.851v3.548h6.56v-3.548c0-0.709-0.007-1.325-0.022-1.851c-0.007-0.175-0.103-0.288-0.286-0.34
			l-1.288-0.372l-0.033-0.559c0.932,0.03,2.032,0.044,3.302,0.044c1.24,0,2.36-0.014,3.357-0.044l0.055,0.559l-1.497,0.427
			c-0.169,0.052-0.26,0.172-0.275,0.361c-0.015,0.482-0.022,1.087-0.022,1.818v8.729c0,0.862,0.007,1.588,0.022,2.179
			c0.015,0.167,0.117,0.282,0.308,0.34l1.431,0.405l0.033,0.548c-1.05-0.022-2.209-0.033-3.478-0.033
			c-1.24,0-2.301,0.011-3.181,0.033l-0.055-0.548l1.321-0.383c0.183-0.052,0.279-0.178,0.286-0.383
			c0.015-0.577,0.022-1.295,0.022-2.158V94.06H67.278z"/>
		<path d="M100.634,93.567c0,2.527-0.749,4.558-2.246,6.095c-1.497,1.536-3.581,2.305-6.252,2.305c-2.554,0-4.527-0.71-5.922-2.129
			c-1.394-1.421-2.091-3.343-2.091-5.767c0-2.527,0.752-4.525,2.257-5.995c1.505-1.472,3.585-2.208,6.241-2.208
			c2.554,0,4.527,0.688,5.922,2.064C99.937,89.308,100.634,91.187,100.634,93.567z M87.821,93.709c0,2.336,0.396,4.123,1.189,5.362
			c0.793,1.236,1.956,1.856,3.489,1.856c1.511,0,2.629-0.562,3.353-1.687c0.722-1.125,1.083-2.891,1.083-5.301
			c0-2.264-0.382-4.002-1.145-5.219c-0.763-1.214-1.945-1.823-3.544-1.823c-1.549,0-2.673,0.565-3.373,1.691
			C88.172,89.718,87.821,91.424,87.821,93.709z"/>
		<path d="M110.341,98.123c0,0.438,0.002,0.831,0.005,1.177c0.005,0.347,0.009,0.663,0.017,0.948
			c0.008,0.233,0.091,0.375,0.253,0.427l1.145,0.372l0.033,0.548c-0.815-0.022-1.824-0.033-3.027-0.033
			c-1.285,0-2.43,0.011-3.434,0.033l-0.055-0.548l1.475-0.405c0.184-0.052,0.283-0.164,0.297-0.34
			c0.008-0.293,0.013-0.618,0.016-0.981c0.005-0.36,0.006-0.76,0.006-1.198v-8.729c0-0.365-0.002-0.698-0.006-0.997
			c-0.003-0.299-0.008-0.573-0.016-0.821c-0.008-0.189-0.096-0.31-0.264-0.361l-1.475-0.427l-0.033-0.559
			c1.027,0.03,2.08,0.044,3.159,0.044c0.228,0,0.509-0.006,0.848-0.016c0.338-0.013,0.749-0.025,1.233-0.039
			c0.44-0.014,0.81-0.025,1.105-0.033c0.299-0.008,0.532-0.011,0.7-0.011c1.885,0,3.301,0.314,4.244,0.942
			c0.942,0.627,1.414,1.544,1.414,2.749c0,1.087-0.288,1.965-0.863,2.635c-0.577,0.666-1.423,1.18-2.538,1.538
			c0.616,0.906,1.091,1.64,1.425,2.201c0.335,0.562,0.67,1.116,1.008,1.658c0.338,0.544,0.643,1.025,0.92,1.441
			c0.274,0.416,0.533,0.745,0.775,0.986c0.132,0.11,0.259,0.205,0.379,0.285c0.123,0.08,0.248,0.15,0.381,0.208
			c0.132,0.058,0.274,0.108,0.425,0.147c0.149,0.041,0.316,0.08,0.5,0.116l0.044,0.559c-0.719,0.102-1.541,0.153-2.466,0.153
			c-0.734,0-1.247-0.047-1.541-0.142c-0.294-0.095-0.554-0.23-0.782-0.405c-0.338-0.263-0.648-0.605-0.929-1.029
			c-0.283-0.424-0.582-0.901-0.898-1.435s-0.64-1.098-0.973-1.698c-0.335-0.599-0.686-1.191-1.052-1.774
			c-0.11-0.167-0.2-0.307-0.269-0.416c-0.071-0.11-0.14-0.192-0.211-0.246c-0.069-0.056-0.142-0.095-0.22-0.122
			c-0.075-0.025-0.173-0.041-0.291-0.049l-0.462-0.011V98.123z M110.341,93.512c0.388,0.022,0.741,0.033,1.057,0.033
			c1.043,0,1.805-0.261,2.29-0.782c0.484-0.523,0.727-1.339,0.727-2.449c0-1.073-0.233-1.857-0.7-2.348
			c-0.465-0.494-1.19-0.74-2.173-0.74c-0.168,0-0.351,0.008-0.544,0.022c-0.195,0.014-0.414,0.036-0.656,0.066V93.512z"/>
		<path d="M131.594,98.123c0,0.438,0.002,0.835,0.006,1.194c0.003,0.358,0.008,0.679,0.016,0.964
			c0.008,0.189,0.132,0.318,0.374,0.383l1.354,0.383l0.033,0.548c-1.021-0.022-2.15-0.033-3.39-0.033
			c-1.285,0-2.43,0.011-3.434,0.033l-0.055-0.548l1.475-0.405c0.184-0.052,0.283-0.164,0.297-0.34
			c0.008-0.293,0.013-0.618,0.016-0.981c0.005-0.36,0.006-0.76,0.006-1.198v-8.729c0-0.365-0.002-0.698-0.006-0.997
			c-0.003-0.299-0.008-0.573-0.016-0.821c-0.008-0.189-0.096-0.31-0.264-0.361l-1.475-0.427l-0.033-0.559
			c1.021,0.03,2.15,0.044,3.39,0.044c1.277,0,2.422-0.014,3.434-0.044l0.055,0.559l-1.475,0.405
			c-0.176,0.044-0.272,0.153-0.286,0.329c-0.008,0.263-0.013,0.546-0.016,0.848c-0.005,0.304-0.006,0.631-0.006,0.981V98.123z"/>
		<path d="M146.996,101.562c-1.291,0-2.524,0.011-3.699,0.033l-0.055-0.548l1.761-0.482c0.184-0.058,0.278-0.175,0.286-0.35
			c0.014-0.548,0.022-1.252,0.022-2.114v-10.7h-3.17l-1.013,2.913l-0.616,0.099l-0.286-4.096l0.077-0.088
			c1.805,0.03,3.533,0.044,5.185,0.044h3.071c1.651,0,3.39-0.014,5.218-0.044l0.066,0.088l-0.727,4.008l-0.616,0.099l-0.715-3.023
			h-3.181v10.7c0,0.862,0.008,1.566,0.022,2.114c0.008,0.175,0.107,0.293,0.297,0.35l1.728,0.482l0.033,0.548
			C149.465,101.573,148.237,101.562,146.996,101.562z"/>
	</g>
	<g>
		<path d="M167.413,93.271l2.113-4.184c0.198-0.365,0.355-0.676,0.473-0.931c0.118-0.255,0.176-0.463,0.176-0.624
			c0-0.219-0.165-0.372-0.495-0.46l-0.991-0.263l-0.033-0.58c0.815,0.03,1.67,0.044,2.565,0.044c0.815,0,1.618-0.014,2.411-0.044
			l0.055,0.559l-1.167,0.34c-0.264,0.088-0.469,0.217-0.61,0.388c-0.145,0.172-0.289,0.39-0.436,0.652l-3.478,6.407v3.548
			c0,0.438,0.002,0.835,0.005,1.194c0.005,0.358,0.009,0.679,0.017,0.964c0.008,0.189,0.135,0.318,0.385,0.383l1.233,0.383
			l0.033,0.548c-0.947-0.022-2.04-0.033-3.28-0.033c-1.277,0-2.385,0.011-3.324,0.033l-0.055-0.548l1.365-0.405
			c0.184-0.052,0.283-0.164,0.297-0.34c0.008-0.293,0.014-0.618,0.022-0.981c0.008-0.36,0.011-0.76,0.011-1.198v-3.286l-3.577-6.374
			c-0.272-0.446-0.494-0.765-0.665-0.958c-0.173-0.194-0.403-0.335-0.689-0.422l-1.057-0.296l-0.044-0.559
			c0.727,0.03,1.758,0.044,3.093,0.044c1.467,0,2.859-0.014,4.172-0.044l0.055,0.559l-1.123,0.274
			c-0.168,0.036-0.294,0.089-0.374,0.16c-0.08,0.069-0.121,0.158-0.121,0.268c0,0.153,0.052,0.34,0.154,0.559
			c0.102,0.219,0.245,0.479,0.429,0.778L167.413,93.271z"/>
	</g>
</g>
</svg>
