<?xml version="1.0" encoding="utf-8"?>
<!-- Generator: Adobe Illustrator 21.0.2, SVG Export Plug-In . SVG Version: 6.00 Build 0)  -->
<svg version="1.1" xmlns="http://www.w3.org/2000/svg" xmlns:xlink="http://www.w3.org/1999/xlink" x="0px" y="0px"
	 viewBox="0 0 50.1 50.1" style="enable-background:new 0 0 50.1 50.1;" xml:space="preserve">
<style type="text/css">
	.st0{fill:#FFFFFF;}
	.st1{fill:#380059;}
</style>
<g id="Layer_4">
</g>
<g id="Layer_3">
	<g>
		<path class="st0" d="M48.6,0H26.1l24,24.2V1.4C50,0.7,49.4,0,48.6,0z"/>
	</g>
</g>
<g id="Layer_5">
	<g id="zw755T.tif">
		<g>
			<path class="st1" d="M46.6,0.9c0.5,0.1,1,0.3,1.4,0.6C49,2.3,49.4,3.6,49,4.9c-0.5,1.6-1.5,3-2.5,4.4c-0.1,0.1-0.2,0.3-0.4,0.5
				c-0.3-0.4-0.5-0.7-0.8-1.1c-0.8-1.2-1.5-2.4-2-3.7c-0.6-1.8,0.4-3.7,2.3-4c0,0,0.1,0,0.1,0C46,0.9,46.3,0.9,46.6,0.9z M46.2,2.4
				c-0.8,0-1.5,0.6-1.5,1.4c0,0.8,0.6,1.5,1.5,1.5c0.8,0,1.5-0.6,1.5-1.4C47.7,3.1,47,2.4,46.2,2.4z"/>
		</g>
	</g>
</g>
</svg>
