<?xml version="1.0" encoding="UTF-8" standalone="no"?>
<svg
   xmlns:dc="http://purl.org/dc/elements/1.1/"
   xmlns:cc="http://creativecommons.org/ns#"
   xmlns:rdf="http://www.w3.org/1999/02/22-rdf-syntax-ns#"
   xmlns:svg="http://www.w3.org/2000/svg"
   xmlns="http://www.w3.org/2000/svg"
   xmlns:xlink="http://www.w3.org/1999/xlink"
   xmlns:sodipodi="http://sodipodi.sourceforge.net/DTD/sodipodi-0.dtd"
   xmlns:inkscape="http://www.inkscape.org/namespaces/inkscape"
   width="105px"
   height="105px"
   viewBox="0 0 105 105"
   version="1.1"
   id="svg21"
   sodipodi:docname="Existing account.svg"
   inkscape:version="0.92.1 r15371">
  <metadata
     id="metadata25">
    <rdf:RDF>
      <cc:Work
         rdf:about="">
        <dc:format>image/svg+xml</dc:format>
        <dc:type
           rdf:resource="http://purl.org/dc/dcmitype/StillImage" />
      </cc:Work>
    </rdf:RDF>
  </metadata>
  <sodipodi:namedview
     pagecolor="#ffffff"
     bordercolor="#666666"
     borderopacity="1"
     objecttolerance="10"
     gridtolerance="10"
     guidetolerance="10"
     inkscape:pageopacity="0"
     inkscape:pageshadow="2"
     inkscape:window-width="1920"
     inkscape:window-height="1018"
     id="namedview23"
     showgrid="false"
     inkscape:zoom="7.8190476"
     inkscape:cx="52.5"
     inkscape:cy="52.5"
     inkscape:window-x="1912"
     inkscape:window-y="-8"
     inkscape:window-maximized="1"
     inkscape:current-layer="svg21" />
  <!-- Generator: Sketch 45.2 (43514) - http://www.bohemiancoding.com/sketch -->
  <title
     id="title2">Existing account</title>
  <desc
     id="desc4">Created with Sketch.</desc>
  <defs
     id="defs7">
    <circle
       id="path-1"
       cx="48.5"
       cy="48.5"
       r="48.5" />
  </defs>
  <g
     id="---exploration"
     transform="matrix(0.91836582,0,0,0.92696388,4.4136876,5.6237865)"
     style="fill:none;fill-rule:evenodd;stroke:none;stroke-width:1">
    <g
       id="Existing-account">
      <g
         id="Existing-Customer"
         transform="translate(4,2)">
        <g
           id="bg">
          <g
             id="Oval">
            <use
               xlink:href="#path-1"
               id="use9"
               style="fill:#ffffff;fill-rule:evenodd"
               x="0"
               y="0"
               width="100%"
               height="100%" />
            <circle
               cx="48.5"
               cy="48.5"
               r="46"
               id="circle11"
               style="stroke:#fbfbfb;stroke-width:5" />
          </g>
        </g>
        <g
           id="Login"
           transform="translate(19,25)">
          <path
             d="m 32.393994,23.884943 c -0.0056,-1.103677 -0.251949,-2.028132 -0.884113,-2.810856 -1.007797,-1.250895 -2.584542,-1.261868 -3.603333,-0.0384 -1.222184,1.467607 -1.214854,4.036148 0.01466,5.486381 0.983976,1.164028 2.463514,1.200603 3.481481,0.06675 0.705458,-0.783638 0.976647,-1.749241 0.991306,-2.703871 M 26.20337,0.0914214 h 0.91618 c 0.110674,0.04553697 0.224922,0.08165564 0.341735,0.10789883 2.204327,0.31272374 4.406822,0.63459144 6.613898,0.92445527 1.419162,0.1828794 2.840156,0.3977626 4.267564,0.4645136 1.660116,0.077724 3.325639,0 4.989512,0.00823 1.756316,0.010973 3.04538,1.0680155 3.481482,2.815428 0.02492,0.072146 0.0568,0.1416401 0.09528,0.2075681 V 43.010468 c -0.02978,0.03466 -0.05405,0.07352 -0.07238,0.115214 -0.511228,1.914747 -1.776472,2.908697 -3.703197,2.91144 -1.602489,0 -3.206627,0 -4.8082,0.01372 -1.785542,0.01463 -3.5731,-0.04663 -5.354061,0.09144 -1.989941,0.152705 -3.96614,0.493775 -5.948752,0.745234 -0.711047,0.09144 -1.351365,-0.09876 -1.948714,-0.51572 -0.217134,-0.153344 -0.473665,-0.241218 -0.739448,-0.253288 -2.137355,-0.01554 -4.273885,0.0064 -6.413164,0 -1.760897,-0.0064 -3.221286,-1.26644 -3.465906,-3.062315 -0.109026,-0.802841 -0.04865,-1.63037 -0.05048,-2.446012 0.01878,-0.09994 0.07687,-0.188183 0.161339,-0.245058 0.535965,-0.388619 1.081,-0.763522 1.619805,-1.147568 0.380215,-0.274319 0.755848,-0.548638 1.210273,-0.880564 0,0.834844 -0.01017,1.554474 0,2.27319 0.02565,1.554475 1.147973,2.918755 2.644094,3.065973 1.103904,0.108813 2.2254,0.0256 3.337641,0.07132 0.472749,0.0192 0.612008,-0.118872 0.610176,-0.619961 -0.01558,-5.669261 -0.0073,-11.347666 -0.0047,-17.021498 0.0037,-7.056675 0.0095,-14.113442 0.0175,-21.1701169 0,-0.3739883 -0.07888,-0.5303502 -0.478245,-0.5175486 -0.945497,0.030175 -1.892827,0.0064 -2.840156,0.015545 -1.96154,0.018288 -3.298246,1.4017704 -3.298246,3.4198444 v 5.6582881 c 0,0.145389 -0.01466,0.290778 -0.02565,0.4764 -0.978571,-0.691284 -1.910234,-1.342334 -2.830078,-2.011673 -0.08337,-0.06035 -0.120936,-0.239572 -0.120936,-0.365759 -0.0055,-2.1378592 -0.01841,-4.2748048 0.0064,-6.4126647 0.01832,-1.6248832 1.082924,-3.0092801 2.616608,-3.3924124 0.511228,-0.1280156 1.056355,-0.1499611 1.586822,-0.1563619 1.7554,-0.021945 3.5108,-0.010973 5.266108,-0.023774 0.153002,0 0.388551,-0.033833 0.444438,-0.1344164 0.427856,-0.75986378 1.105737,-1.14116728 1.875419,-1.3999416"
             id="Fill-1"
             inkscape:connector-curvature="0"
             style="fill:#732b90" />
          <path
             d="M 21.305448,24.280886 19.82307,22.951353 c -2.053158,-1.846168 -4.176862,-3.755428 -6.306979,-5.570506 -0.314249,-0.267918 -1.269824,-1.081732 -2.181423,-0.539494 -0.953742,0.566011 -1.007797,2.157062 -1.024288,2.680097 -0.03023,0.914397 -0.0229,1.807763 -0.01558,2.755992 v 0.279806 l -1.4988695,9.14e-4 c -1.7407408,0.0046 -3.3797856,0.0091 -5.0188304,-0.01189 h -0.082456 c -2.2336452,0 -3.4704873,1.169513 -3.67662765,3.474708 -0.0842885,0.945486 0.1282651,1.794047 0.61384015,2.453327 0.6514035,0.883307 1.7508187,1.359617 3.1727291,1.377082 1.6344639,0.02012 3.2625146,0.01554 4.9858479,0.01097 h 1.5107794 v 0.489203 c -0.0055,1.036011 -0.01099,1.930292 0.01374,2.84926 0.04214,1.554475 0.567115,2.188061 0.999551,2.447841 0.200094,0.120517 0.429597,0.183702 0.663314,0.182879 0.366472,0 0.829143,-0.154533 1.374269,-0.619961 2.138363,-1.828794 4.276725,-3.734397 6.344542,-5.577821 0.53624,-0.478504 1.072846,-0.957099 1.609727,-1.435603 0.789747,-0.709572 0.957408,-1.454805 0.957408,-1.954981 0,-0.500175 -0.164913,-1.250894 -0.958324,-1.962295"
             id="Fill-4"
             inkscape:connector-curvature="0"
             style="fill:#f47922" />
        </g>
      </g>
    </g>
  </g>
</svg>
