<?xml version="1.0" encoding="UTF-8"?>
<svg width="105px" height="105px" viewBox="0 0 105 105" version="1.1" xmlns="http://www.w3.org/2000/svg" xmlns:xlink="http://www.w3.org/1999/xlink">
    <!-- Generator: Sketch 45.2 (43514) - http://www.bohemiancoding.com/sketch -->
    <title>Existing Customer</title>
    <desc>Created with Sketch.</desc>
    <defs>
        <circle id="path-1" cx="48.5" cy="48.5" r="48.5"></circle>
        <filter x="-7.2%" y="-5.2%" width="114.4%" height="114.4%" filterUnits="objectBoundingBox" id="filter-2">
            <feOffset dx="0" dy="2" in="SourceAlpha" result="shadowOffsetOuter1"></feOffset>
            <feGaussianBlur stdDeviation="2" in="shadowOffsetOuter1" result="shadowBlurOuter1"></feGaussianBlur>
            <feComposite in="shadowBlurOuter1" in2="SourceAlpha" operator="out" result="shadowBlurOuter1"></feComposite>
            <feColorMatrix values="0 0 0 0 0   0 0 0 0 0   0 0 0 0 0  0 0 0 0.1 0" type="matrix" in="shadowBlurOuter1"></feColorMatrix>
        </filter>
    </defs>
    <g id="##-screens-iphone" stroke="none" stroke-width="1" fill="none" fill-rule="evenodd">
        <g id="Get---Branching" transform="translate(-20.000000, -379.000000)">
            <g id="activate" transform="translate(23.000000, 380.000000)">
                <g id="Existing-Customer" transform="translate(1.000000, 1.000000)">
                    <g id="bg">
                        <g id="Oval">
                            <use fill="black" fill-opacity="1" filter="url(#filter-2)" xlink:href="#path-1"></use>
                            <use fill="#FFFFFF" fill-rule="evenodd" xlink:href="#path-1"></use>
                            <circle stroke="#FBFBFB" stroke-width="5" cx="48.5" cy="48.5" r="46"></circle>
                        </g>
                    </g>
                    <g id="Group-2" transform="translate(19.000000, 25.000000)">
                        <g id="Login">
                            <path d="M32.3939942,23.8849428 C32.3884055,22.7812658 32.1420448,21.8568105 31.5098811,21.0740868 C30.5020838,19.8231918 28.9253392,19.8122191 27.9065478,21.0356821 C26.6843645,22.5032891 26.691694,25.07183 27.9212066,26.5220634 C28.9051832,27.6860907 30.3847212,27.7226665 31.4026881,26.5888144 C32.1081462,25.8051763 32.3793353,24.8395732 32.3939942,23.8849428 M26.2033704,0.0914214008 L27.1195497,0.0914214008 C27.2302242,0.136958366 27.3444717,0.173077043 27.4612846,0.199320233 C29.6656121,0.512043969 31.8681072,0.833911673 34.0751832,1.12377549 C35.494345,1.30665486 36.9153392,1.52153813 38.3427466,1.58828911 C40.0028635,1.66601284 41.668386,1.58828911 43.3322593,1.59651868 C45.088575,1.60749144 46.3776394,2.66453424 46.8137407,4.41194669 C46.8386608,4.48409261 46.8705439,4.55358677 46.9090234,4.61951479 L46.9090234,43.0104681 C46.8792476,43.0451237 46.8549688,43.0839856 46.8366452,43.1256821 C46.3254172,45.0404292 45.0601735,46.0343786 43.1334483,46.0371218 C41.5309591,46.0371218 39.9268207,46.0371218 38.3252476,46.0508377 C36.5397057,46.0654681 34.7521481,46.0042035 32.9711871,46.1422774 C30.9812456,46.2949817 29.0050468,46.6360518 27.0224347,46.8875109 C26.3113879,46.9789506 25.6710702,46.788756 25.0737212,46.3717911 C24.8565867,46.2184467 24.6000565,46.1305732 24.3342729,46.1185031 C22.1969181,46.1029584 20.0603879,46.1249039 17.9211092,46.1185031 C16.1602125,46.1121023 14.6998226,44.8520634 14.4552027,43.0561879 C14.3461774,42.2533475 14.4065536,41.4258183 14.4047212,40.6101763 C14.4235029,40.5102327 14.4815887,40.4219934 14.5660604,40.3651179 C15.1020253,39.9764992 15.6470604,39.6015965 16.1858655,39.2175498 C16.5660799,38.9432307 16.9417135,38.6689117 17.3961384,38.3369856 C17.3961384,39.17183 17.3859688,39.8914603 17.3961384,40.6101763 C17.4217914,42.164651 18.5441111,43.5289311 20.040232,43.676149 C21.1441365,43.7849623 22.2656316,43.7017521 23.3778733,43.747472 C23.8506218,43.7666743 23.9898811,43.6286004 23.9880487,43.1275109 C23.9724737,37.4582502 23.9807193,31.7798455 23.9833762,26.1060128 C23.9870409,19.0493377 23.9929045,11.9925712 24.0008752,4.93589611 C24.0008752,4.56190778 23.9219922,4.40554591 23.5226296,4.41834747 C22.5771326,4.44852257 21.6298031,4.42474825 20.6824737,4.43389222 C18.7209337,4.45218016 17.3842281,5.83566265 17.3842281,7.85373658 L17.3842281,13.5120245 C17.3842281,13.6574136 17.3695692,13.8028027 17.358575,13.9884253 C16.3800039,13.2971412 15.4483411,12.6460907 14.5284971,11.9767521 C14.4451248,11.9164019 14.4075614,11.7371802 14.4075614,11.6109934 C14.4020643,9.47313346 14.3891462,7.33618794 14.4139747,5.19832802 C14.4322982,3.57344475 15.4968986,2.18904786 17.0305828,1.80591556 C17.5418109,1.6779 18.0869376,1.65595447 18.6174055,1.6495537 C20.3728051,1.62760817 22.1282047,1.63858093 23.8835127,1.62577938 C24.0365146,1.62577938 24.2720643,1.59194669 24.3279513,1.49136304 C24.755807,0.731499222 25.4336881,0.35019572 26.2033704,0.0914214008" id="Fill-1" fill="#732B90"></path>
                            <path d="M21.3054481,24.2808858 L19.82307,22.9513527 C17.7699121,21.1051854 15.6462084,19.1959247 13.5160914,17.3808469 C13.2018419,17.1129286 12.2462669,16.2991154 11.3346684,16.8413527 C10.3809257,17.4073644 10.3268712,18.998415 10.3103799,19.52145 C10.280146,20.4358469 10.2874754,21.3292126 10.2948049,22.2774422 L10.2948049,22.5572477 L8.79593548,22.5581621 C7.05519474,22.562734 5.4161499,22.567306 3.77710507,22.5462749 L3.69464893,22.5462749 C1.4610037,22.5462749 0.224161598,23.7157885 0.0180212476,26.0209831 C-0.0662672515,26.9664695 0.146286355,27.8150298 0.631861404,28.4743099 C1.28326491,29.3576173 2.38268012,29.8339267 3.80459045,29.8513916 C5.43905439,29.8715084 7.06710507,29.8669364 8.7904384,29.8623644 L10.3012181,29.8623644 L10.3012181,30.3515667 C10.2957211,31.3875784 10.290224,32.2818586 10.3149608,33.2008274 C10.3571051,34.7553021 10.8820758,35.3888877 11.3145125,35.6486679 C11.514606,35.7691854 11.744109,35.8323702 11.9778263,35.8315473 C12.3442981,35.8315473 12.8069686,35.6770142 13.3520953,35.2115862 C15.4904579,33.3827924 17.6288205,31.4771893 19.6966372,29.6337652 C20.232877,29.1552613 20.7694832,28.676666 21.3063643,28.1981621 C22.0961109,27.4885901 22.2637717,26.7433566 22.2637717,26.2431815 C22.2637717,25.7430064 22.0988595,24.9922866 21.3054481,24.2808858" id="Fill-4" fill="#F47922"></path>
                        </g>
                    </g>
                </g>
            </g>
        </g>
    </g>
</svg>