<?xml version="1.0" encoding="utf-8"?>
<!-- Generator: Adobe Illustrator 18.1.1, SVG Export Plug-In . SVG Version: 6.00 Build 0)  -->
<svg version="1.1" id="PayYourInvoice_1_" xmlns="http://www.w3.org/2000/svg" xmlns:xlink="http://www.w3.org/1999/xlink" x="0px"
	 y="0px" viewBox="0 0 150 150" enable-background="new 0 0 150 150" xml:space="preserve">
<g id="White_Circle">
	<g>
		<path fill="none" d="M75,0C33.7,0,0.1,33.6,0,74.9S33.5,150,74.8,150c41.4,0,74.9-33.1,75.1-74.4C150.2,33.7,116.7,0,75,0z
			 M75,139.8c-35.8,0-64.8-29-64.8-64.8c0-35.7,29-64.8,64.8-64.8c35.8,0,64.9,29,64.9,64.8C139.8,110.8,110.8,139.8,75,139.8z"/>
		<path fill="#FFFFFF" d="M75,10.2c-35.7,0-64.8,29.1-64.8,64.8c0,35.8,29,64.8,64.8,64.8c35.8,0,64.8-29,64.8-64.9
			C139.8,39.2,110.7,10.2,75,10.2z"/>
	</g>
</g>
<g id="PayYourInvoice">
	<g>
		<g>
			<path fill="#F57800" d="M107,99L42.7,79.3c-1.9-0.6-2.9-2.6-2.4-4.5l12.1-39.6c0.6-1.9,2.6-2.9,4.5-2.4l64.3,19.6
				c1.9,0.6,2.9,2.6,2.4,4.5l-12.1,39.6C110.9,98.5,108.9,99.6,107,99z"/>
			<path fill="#ECAA1E" d="M70.4,55.5L58,51.7c-1.3-0.4-2-1.7-1.6-3l2-6.7c0.4-1.3,1.7-2,3-1.6l12.4,3.8c1.3,0.4,2,1.7,1.6,3l-2,6.7
				C73,55.2,71.6,55.9,70.4,55.5z"/>
		</g>
		<g>
			<path fill="#EDAB20" d="M100.2,111h-70c-2.2,0-4-1.8-4-4V64c0-2.2,1.8-4,4-4h70c2.2,0,4,1.8,4,4v43
				C104.2,109.2,102.4,111,100.2,111z"/>
			<rect x="26.3" y="68.7" fill="#742584" width="78" height="14.4"/>
			<g>
				<rect x="68.6" y="101.2" fill="#742584" width="7.2" height="5.8"/>
				<rect x="79.5" y="101.2" fill="#742584" width="19.7" height="5.8"/>
			</g>
		</g>
	</g>
</g>
</svg>
