<?xml version="1.0" encoding="UTF-8" standalone="no"?>
<svg
   xmlns:dc="http://purl.org/dc/elements/1.1/"
   xmlns:cc="http://creativecommons.org/ns#"
   xmlns:rdf="http://www.w3.org/1999/02/22-rdf-syntax-ns#"
   xmlns:svg="http://www.w3.org/2000/svg"
   xmlns="http://www.w3.org/2000/svg"
   xmlns:xlink="http://www.w3.org/1999/xlink"
   xmlns:sodipodi="http://sodipodi.sourceforge.net/DTD/sodipodi-0.dtd"
   xmlns:inkscape="http://www.inkscape.org/namespaces/inkscape"
   width="375.39999"
   height="375.5"
   viewBox="0 0 375.39999 375.5"
   version="1.1"
   id="svg29"
   sodipodi:docname="New account.svg"
   inkscape:version="0.92.1 r15371">
  <metadata
     id="metadata33">
    <rdf:RDF>
      <cc:Work
         rdf:about="">
        <dc:format>image/svg+xml</dc:format>
        <dc:type
           rdf:resource="http://purl.org/dc/dcmitype/StillImage" />
        <dc:title>New account</dc:title>
      </cc:Work>
    </rdf:RDF>
  </metadata>
  <sodipodi:namedview
     pagecolor="#ffffff"
     bordercolor="#666666"
     borderopacity="1"
     objecttolerance="10"
     gridtolerance="10"
     guidetolerance="10"
     inkscape:pageopacity="0"
     inkscape:pageshadow="2"
     inkscape:window-width="1920"
     inkscape:window-height="1018"
     id="namedview31"
     showgrid="false"
     inkscape:zoom="2.1864181"
     inkscape:cx="187.7"
     inkscape:cy="187.75"
     inkscape:window-x="1912"
     inkscape:window-y="-8"
     inkscape:window-maximized="1"
     inkscape:current-layer="svg29" />
  <!-- Generator: Sketch 45.2 (43514) - http://www.bohemiancoding.com/sketch -->
  <title
     id="title2">New account</title>
  <desc
     id="desc4">Created with Sketch.</desc>
  <defs
     id="defs8">
    <circle
       id="path-1"
       cx="48.5"
       cy="48.5"
       r="48.5" />
    <ellipse
       id="path-2"
       cx="14.4"
       cy="14.558824"
       rx="14.4"
       ry="14.253394" />
  </defs>
  <g
     id="---exploration"
     style="fill:none;fill-rule:evenodd;stroke:none;stroke-width:1"
     transform="matrix(3.283906,0,0,3.3392026,28.690011,26.275275)">
    <g
       id="New-account">
      <g
         id="Add-Account-Graphic">
        <g
           id="Group-4">
          <g
             id="Oval">
            <use
               xlink:href="#path-1"
               id="use10"
               style="fill:#ffffff;fill-rule:evenodd"
               x="0"
               y="0"
               width="100%"
               height="100%" />
            <circle
               cx="48.5"
               cy="48.5"
               r="46"
               id="circle12"
               style="stroke:#fbfbfb;stroke-width:5" />
          </g>
          <path
             d="M 54.826087,20 C 40.562339,20 29,31.562339 29,45.826087 c 0,14.261165 11.562339,25.826087 25.826087,25.826087 14.261165,0 25.826087,-11.564922 25.826087,-25.826087 C 80.652174,31.544261 69.030435,20 54.826087,20 m 0,7.747826 c 4.279383,0 7.747826,3.468444 7.747826,7.747826 0,4.279383 -3.468443,7.747826 -7.747826,7.747826 -4.279383,0 -7.747826,-3.468443 -7.747826,-7.747826 0,-4.279382 3.468443,-7.747826 7.747826,-7.747826 m 0,36.673044 c -6.456522,0 -12.164087,-3.30574 -15.495652,-8.264348 0.07748,-5.165218 10.330435,-8.006087 15.495652,-8.006087 5.165217,0 15.418174,2.840869 15.495652,8.006087 -3.331565,4.958608 -9.03913,8.264348 -15.495652,8.264348"
             id="Page-1"
             inkscape:connector-curvature="0"
             style="fill:#732b90" />
          <g
             id="add-icon-and-bg"
             transform="translate(14,47)">
            <g
               id="Oval-Copy-2">
              <use
                 xlink:href="#path-2"
                 id="use16"
                 style="fill:#f47922;fill-rule:evenodd"
                 x="0"
                 y="0"
                 width="100%"
                 height="100%" />
              <ellipse
                 cx="14.4"
                 cy="14.558824"
                 rx="15.9"
                 ry="15.753394"
                 id="ellipse18"
                 style="stroke:#ffffff;stroke-width:3" />
            </g>
            <g
               id="add-icon"
               transform="rotate(-45,20.334654,-0.31195908)"
               style="fill:#ffffff">
              <rect
                 id="Rectangle-10"
                 transform="rotate(-45,5.664777,6.016427)"
                 x="-1.0112268"
                 y="5.0043168"
                 width="13.352008"
                 height="2.0242214" />
              <rect
                 id="Rectangle-10-Copy"
                 transform="rotate(45,5.664777,6.016427)"
                 x="-1.0112268"
                 y="5.0043168"
                 width="13.352008"
                 height="2.0242214" />
            </g>
          </g>
        </g>
      </g>
    </g>
  </g>
</svg>
