<?xml version="1.0" encoding="utf-8"?>
<!-- Generator: Adobe Illustrator 22.1.0, SVG Export Plug-In . SVG Version: 6.00 Build 0)  -->
<svg version="1.1" id="Layer_1" xmlns="http://www.w3.org/2000/svg" xmlns:xlink="http://www.w3.org/1999/xlink" x="0px" y="0px"
	 viewBox="0 0 1036 486.6" style="enable-background:new 0 0 1036 486.6;" xml:space="preserve">
<style type="text/css">
	.st0{fill:#E87722;}
	.st1{fill:#414042;}
	.st2{fill:#3C2415;}
	.st3{fill:#A97C50;}
	.st4{fill:#006838;}
</style>
<g>
	<path class="st0" d="M108,304H82.8L25.7,131.1h35l34.7,112.7l34.7-112.7h35.2L108,304z"/>
	<path class="st0" d="M186.2,304V131.1H220V304H186.2z"/>
	<path class="st0" d="M307.9,305.5c-26.2,0-46.2-5.6-63.2-22.8l21.9-21.9c10.9,10.9,25.7,14.6,41.8,14.6c19.9,0,30.6-7.5,30.6-21.4
		c0-6.1-1.7-11.2-5.3-14.6c-3.4-3.2-7.3-4.9-15.3-6.1l-20.9-2.9c-14.8-2.2-25.7-6.8-33.5-14.3c-8.3-8.3-12.4-19.4-12.4-34
		c0-30.8,22.8-52.5,60.2-52.5c23.8,0,41,5.8,55.9,20.2l-21.4,21.1c-10.9-10.4-24-11.9-35.5-11.9c-18,0-26.7,10-26.7,21.9
		c0,4.4,1.5,9,5.1,12.4c3.4,3.2,9,5.8,16,6.8l20.4,2.9c15.8,2.2,25.7,6.6,33,13.4c9.2,8.7,13.4,21.4,13.4,36.7
		C372.1,286.5,344.1,305.5,307.9,305.5z"/>
	<g>
		<path class="st0" d="M578,161.2V304h-33.8V161.2h-45.2v-30.1h124.1v30.1H578z"/>
	</g>
	<path class="st0" d="M747.8,286.5c-12.1,12.1-27,18.9-46.6,18.9c-19.7,0-34.7-6.8-46.9-18.9c-17.5-17.5-17-39.1-17-69
		s-0.5-51.5,17-69c12.1-12.1,27.2-18.9,46.9-18.9c19.7,0,34.5,6.8,46.6,18.9c17.5,17.5,17.2,39.1,17.2,69S765.3,269,747.8,286.5z
		 M722.8,168.9c-4.9-5.6-12.4-9.2-21.6-9.2c-9.2,0-17,3.6-21.9,9.2c-6.6,7.3-8.3,15.3-8.3,48.6s1.7,41.3,8.3,48.6
		c4.9,5.6,12.6,9.2,21.9,9.2c9.2,0,16.8-3.6,21.6-9.2c6.6-7.3,8.5-15.3,8.5-48.6S729.3,176.2,722.8,168.9z"/>
	<path class="st0" d="M891.3,304l-33.8-69h-24.3v69h-33.8V131.1h67.8c35.2,0,56.1,24,56.1,53c0,24.3-14.8,39.3-31.6,45.4l38.6,74.6
		H891.3z M865.1,161.2h-31.8v45.7h31.8c14.8,0,24.5-9.5,24.5-22.8C889.6,170.6,879.9,161.2,865.1,161.2z"/>
	<path class="st1" d="M80.1,351.3v109.5H67.2V351.3h-35v-11.6h83v11.6H80.1z"/>
	<path class="st1" d="M212.4,449.2c-8.2,8.2-18.9,12.6-30.9,12.6s-22.8-4.4-30.9-12.6c-11.4-11.4-11.4-23.3-11.4-49
		c0-25.7,0-37.6,11.4-49c8.2-8.2,18.9-12.6,30.9-12.6s22.8,4.4,30.9,12.6c11.4,11.4,11.4,23.3,11.4,49
		C223.8,425.9,223.8,437.8,212.4,449.2z M202.3,358.9c-5.3-5.4-12.9-8.7-20.9-8.7c-8,0-15.6,3.2-20.9,8.7c-7.7,7.8-8.5,16-8.5,41.3
		s0.8,33.5,8.5,41.3c5.3,5.4,12.9,8.7,20.9,8.7c8,0,15.6-3.2,20.9-8.7c7.7-7.8,8.5-16,8.5-41.3S210,366.7,202.3,358.9z"/>
	<path class="st1" d="M263.4,460.8V339.7h12.9v109.5h61.9v11.6H263.4z"/>
	<path class="st1" d="M370,460.8V339.7h12.9v109.5h61.9v11.6H370z"/>
	<path class="st1" d="M573.5,411h-32.1v49.8h-12.9V339.7h45.1c22.1,0,37.4,13.8,37.4,35.5C610.9,397,595.6,411,573.5,411z
		 M572.3,351.3h-30.9v48.1h30.9c15.1,0,25.7-8.2,25.7-24.1C598,359.3,587.4,351.3,572.3,351.3z"/>
	<path class="st1" d="M707,460.8l-9.7-27.4h-52.9l-9.7,27.4h-13.8l44.5-121.1h10.9l44.4,121.1H707z M671.1,358.2l-22.8,63.9h45.2
		L671.1,358.2z"/>
	<path class="st1" d="M780.6,461.8c-18.2,0-30.1-4.6-41.5-16l8.8-8.8c10,10,19.4,13.3,33,13.3c17.7,0,28.6-8.3,28.6-22.4
		c0-6.3-1.9-11.7-5.8-15.1c-3.9-3.4-7-4.4-15.8-5.8l-14.1-2.2c-9.5-1.5-17-4.6-22.3-9.2c-6.1-5.4-9.2-12.9-9.2-22.6
		c0-20.6,14.8-34.2,38.8-34.2c15.5,0,25.7,3.9,36,13.3l-8.3,8.3c-7.5-6.8-15.5-10.4-28.2-10.4c-16.2,0-25.5,9-25.5,22.4
		c0,6,1.7,10.7,5.4,13.9c3.7,3.2,10,5.6,16.3,6.6l13.3,2c11.4,1.7,17,4.1,22.1,8.5c6.6,5.6,10.2,13.9,10.2,24
		C822.4,448.7,805.7,461.8,780.6,461.8z"/>
	<path class="st1" d="M889,461.8c-18.2,0-30.1-4.6-41.5-16l8.8-8.8c10,10,19.4,13.3,33,13.3c17.7,0,28.6-8.3,28.6-22.4
		c0-6.3-1.9-11.7-5.8-15.1c-3.9-3.4-7-4.4-15.8-5.8l-14.1-2.2c-9.5-1.5-17-4.6-22.3-9.2c-6.1-5.4-9.2-12.9-9.2-22.6
		c0-20.6,14.8-34.2,38.8-34.2c15.5,0,25.7,3.9,36,13.3l-8.3,8.3c-7.5-6.8-15.5-10.4-28.2-10.4c-16.2,0-25.5,9-25.5,22.4
		c0,6,1.7,10.7,5.4,13.9c3.7,3.2,10,5.6,16.3,6.6l13.3,2c11.4,1.7,17,4.1,22.1,8.5c6.6,5.6,10.2,13.9,10.2,24
		C930.9,448.7,914.2,461.8,889,461.8z"/>
	<path class="st1" d="M971,338.8v5h-10.2v26.7h-5.4v-26.7h-10.1v-5H971z M990.7,358.6l11.4-19.8h5v31.8h-5.4v-21.2l-8.8,15.1H988
		l-8.3-15.1v21.2h-5.4v-31.8h5L990.7,358.6z"/>
	<path class="st2" d="M456.8,127.5c-0.5,1-1,2.1-1.5,3.1c-1.4,2.7-2.9,5-4.3,7.1l-4.3,8.1c-1.7,3.3-3.4,6.5-5,9.8
		c-13.2,26-22.9,53.6-30.4,81.7c-2.6,9.7-4.9,19.6-7.2,29.4c-0.7,4.1-1.3,8.3-2,12.4c-0.5,3.6-0.9,7.3-1.4,10.9l-1.1,12.4
		c0,0,40.7,0,40.7,0c-1.8,0-1.7-33.4-1.7-36.2c0.2-15.2,1.1-30.4,2.7-45.5c0.8-7.6,1.9-15.1,3.1-22.6l2-11.6l2.8-12.2l3.1-10.5
		l3.4-11.6l3.4-9.3l4.2-9.3c0.4-1.3,0.8-2.5,1.3-3.8c-1.1-0.5-2.4-1-3.8-1.4C459.4,128.1,458.1,127.7,456.8,127.5"/>
	<path class="st3" d="M455.5,135.5c-2.6,2.5-6.3,2.9-8.2,1c-1.9-2-1.3-5.6,1.3-8.2c2.6-2.5,6.3-2.9,8.2-1
		C458.7,129.4,458.1,133,455.5,135.5"/>
	<path class="st3" d="M474.4,134.3c0.7,3.9-1.3,7.5-4.4,8c-3.1,0.5-6.2-2.1-6.9-6c-0.7-3.9,1.3-7.5,4.4-8
		C470.6,127.7,473.7,130.4,474.4,134.3"/>
	<path class="st4" d="M611.2,95.3l-6.4-6.9c-2.2-2.3-4.5-4.5-6.7-6.8c-2.6-1.9-5.2-3.8-7.8-5.7c-3.3-2.2-6.6-4.4-9.9-6.6
		c-2.7-1.5-5.6-2.9-8.9-4.3c-2.5-1.1-4.9-2-7.2-2.8c-2.1-0.8-4.4-1.6-7-2.2c-12.2-3.1-25.4-3-37.5,0.1
		c-14.8,3.8-25.4,12.5-35.8,23.3c-2.2,2.8-4.4,5.5-6.6,8.3c-0.3-4-0.5-8.1-0.8-12.1c-0.6-3.6-1.2-7.2-1.8-10.8
		c-0.8-3.1-1.7-6.2-2.5-9.3c-0.9-2.3-2-4.8-3.3-7.4c-0.7-1.4-1.5-2.7-2.2-3.9c-4.7-7.8-11.3-14.4-18.6-19.7
		c-11.3-8.2-25.3-13.6-39.1-15.5c-11.8-1.7-23.6-1.4-35.4,0l-7.7,1.4l18.4,8.1c0,0,13.8,6.7,13.8,6.7c9.5,4.6,18.8,10.1,27.3,16.5
		c4.3,3.2,8.4,6.7,12.2,10.5c4,4,6.5,8,9.5,12.7c2.3,3.6,4.3,7.4,6,11.3c4.2,9.5,6.1,19.1,7,29.3v4.4l-0.2,1.9c0,0-3.7-10-3.8-10.1
		c-1.8-4.7-5.5-9.6-8.6-13.6c-3.6-4.6-7.7-8.7-12.2-12.3c-9.1-7.2-19.8-12.4-31.2-14.7c-9-1.8-19-0.9-27.9,1
		c-16.8,3.7-31.2,12.5-44.9,22.5c-2,1.9-4,3.8-6,5.7c-1.9,2.1-3.9,4.3-5.8,6.4c-2.1,2.6-4.2,5.1-6.4,7.7c4.4-1.6,8.8-3.2,13.2-4.8
		c0,0,12.5-3.5,12.5-3.5c15.9-4.4,32.1-8.7,48.8-8.8c16,0,29.9,4.7,43.6,12.6c2.1,1.4,4.3,2.7,6.4,4.1l5.1,4c1.5,1.4,3,2.9,4.5,4.3
		c-2.4,0.2-4.7,0.3-7.1,0.5c-1.6,0.3-3.2,0.6-4.8,0.9l-5.8,1.9c-1.1,0.4-2.3,1.1-3.6,2c-1.5,1.1-2.7,2.2-3.5,3.1
		c-1.7,1.9-3.3,3.7-5,5.6c-1.4,2.1-2.9,4.2-4.3,6.3c-1,2.4-2,4.8-3.1,7.2c-0.5,2.2-1.1,4.5-1.6,6.7c-0.4,1.6-0.7,3.2-1.1,4.8
		c0.3-1.2,3.5-3.4,4.5-4.3c1.4-1.4,2.9-2.7,4.3-4.2c2.6-2.9,5.3-5.8,8.3-8.4c3.6-3.2,7.6-6.1,11.9-8.3c4.8-2.5,9.3-3.2,14.6-3.8
		c1.6,0.1,3.3,0.1,4.9,0.2c0.5,0.3,0.9,0.6,1.4,0.8c0.9,0.2,1.9,0.5,2.8,0.7c0.9,0.2,1.9,0.4,2.9,0.8c0.8,0.3,1.5,0.6,2.1,0.9
		c2.7-0.4,5.4-0.8,8.1-1.3c3.9,2.9,8.1,5.5,11.3,9.2c4.7,5.5,7.4,12.5,8.7,19.6c1.9,10.3,0.9,21.1,0.9,31.5c0-1.7,3-5.2,3.8-6.7
		c1.7-3,3.2-5.9,4.5-9.1c4.9-12.1,3.4-26.2-4.4-36.6c-3.3-4.5-8.1-6.9-12.3-10.3c1.2,0.1,2.2-0.3,3.4-0.4c2-0.3,4.1-0.4,6.2-0.6
		c4.1-0.3,8.2-0.3,12.3-0.1c8.8,0.4,18,1.5,26.2,4.8c8,3.2,15.2,8,22.2,13l7.3,6.1l8.4,7.8l7.6,8.1l6.8,7.3l7.3,8.1
		c0,0,8.4,9.3,8.4,9.4c-0.4-0.5-0.2-3.1-0.2-3.7c-0.1-2.2-0.1-4.4-0.4-6.5c-2.1-20.8-13.1-38-25.5-54.1
		c-7.6-9.8-19.7-15.9-31.1-20.1c-12.7-4.6-26.9-5.3-40-2c-2.7,0.7-5.3,1.6-7.9,2.5l-7,3l-6.1,3.4l-5.1,3.8l-5.3,4l-5.5,4.5l5.6-6.1
		l8.1-7.7c0,0,8-6.3,8-6.3c13.2-9.1,26.3-16.1,42.4-18.2c16.4-2.1,32.3,0.9,48.1,5l8.4,2.3l9.8,3.2l8.5,2.2l6.2,1.7
		c1.3,0.2,2.6,0.5,3.8,0.7C614.6,99.4,612.9,97.3,611.2,95.3"/>
</g>
</svg>
